<?xml version="1.0" encoding="UTF-8"?>
<svg width="293px" height="149px" viewBox="0 0 293 149" version="1.1" xmlns="http://www.w3.org/2000/svg" xmlns:xlink="http://www.w3.org/1999/xlink">
    <!-- Generator: Sketch 63.1 (92452) - https://sketch.com -->
    <title>Logo — Wordmark</title>
    <desc>Created with Sketch.</desc>
    <defs>
        <polygon id="path-1" points="0 0 293 0 293 149 0 149"></polygon>
    </defs>
    <g id="→-Design-II" stroke="none" stroke-width="1" fill="none" fill-rule="evenodd">
        <g id="Desktop-HD-Copy-18" transform="translate(-573.000000, -44.000000)" fill="#FFFFFF">
            <g id="Logo-—-Wordmark" transform="translate(573.000000, 44.000000)">
                <g id="Group-3" fill="none">
                    <mask id="mask-2" fill="white">
                        <use xlink:href="#path-1"></use>
                    </mask>
                    <g id="Clip-2"></g>
                    <path d="M233.894297,10.0228482 C222.733669,10.0228482 216.710921,15.1854341 206.441944,15.1854341 C202.476724,15.1854341 201.256569,15.0846596 201.256569,15.0846596 L206.042765,18.7846067 L206.047288,18.7846067 C227.059621,18.7846067 243.859084,47.695088 243.859084,83.3591551 C243.859084,119.021533 227.059621,147.931452 206.047288,147.931452 C185.036086,147.931452 168.236058,119.021533 168.236058,83.3591551 C168.236058,50.3101602 182.666452,23.0779415 201.502522,19.2603302 L187.428901,10.2249603 C187.428901,10.2249603 189.258568,10.4281984 193.93564,10.4281984 C206.035414,10.4281984 212.542153,0 232.979464,0 L244.216423,11.7230673 C244.216423,11.7230673 241.025814,10.0228482 233.894297,10.0228482 L233.894297,10.0228482 Z M231.703333,82.7730862 C230.737048,49.4127598 218.373792,22.7806847 204.410426,23.2873725 C190.44706,23.7934973 179.424391,51.2486587 180.390677,84.6084221 C181.356397,117.967623 193.945817,144.599135 207.908618,144.09301 C221.871418,143.586885 232.669054,116.132287 231.703333,82.7730862 L231.703333,82.7730862 Z M38.1974053,20.934652 C38.1974053,20.934652 52.4157713,96.7694929 57.2963906,123.800162 C60.2512234,140.165053 63.8444042,147.837996 63.8444042,147.837996 C63.8444042,147.837996 59.4008468,147.223778 54.7232096,147.223778 C50.0467033,147.223778 43.4053971,147.931452 43.4053971,147.931452 C43.4053971,147.931452 49.3331558,141.724526 47.7126907,132.189224 C46.8442209,127.078996 44.6481683,115.01307 42.0523709,100.901814 L16.0870461,100.901814 C14.2901731,111.011362 12.879475,119.158339 12.3723022,122.588053 C9.9851411,138.731127 13.9690202,147.689367 13.9690202,147.689367 C13.9690202,147.689367 10.1830346,147.164664 7.1490444,147.164664 C3.7209634,147.164664 0,147.920755 0,147.920755 C0,147.920755 4.42716052,145.624896 7.17109539,130.983307 C9.55147161,118.281206 24.8412896,35.3296531 25.5118659,31.2344895 C26.9123865,22.7125633 22.2217449,20.9920766 22.2217449,20.9920766 C22.2217449,20.9920766 25.2455578,21.7937694 28.2942486,21.7937694 C34.2304885,21.7937694 38.1974053,20.934652 38.1974053,20.934652 L38.1974053,20.934652 Z M41.5440672,98.138676 C35.9923062,67.9980692 28.9365544,30.2306847 28.9365544,30.2306847 C28.9365544,30.2306847 21.5472108,70.2905501 16.5789529,98.138676 L41.5440672,98.138676 Z M258.675653,39.2187637 C258.675653,31.3425829 262.040974,24.3964558 268.650617,24.3964558 C281.342376,24.3964558 291.040854,38.8820978 291.040854,38.8820978 L291.040854,25.0376974 C291.040854,25.0376974 279.490658,19.9100166 273.398931,19.9100166 C265.022946,19.9100166 250.807973,23.3706945 250.807973,44.1387025 C250.807973,77.8525844 283.607974,93.8211328 283.607974,126.894899 C283.607974,138.303257 278.220747,145.538759 270.859674,145.538759 C260.93899,145.538759 249.41141,128.233118 249.41141,128.233118 L249.41141,145.026441 C249.41141,145.026441 256.899701,149 268.448766,149 C277.078619,149 293,143.175905 293,117.407451 C293,91.5128882 258.675653,60.2418046 258.675653,39.2187637 L258.675653,39.2187637 Z M90.648232,20.9177624 C101.933816,20.9177624 119.142636,24.2849845 119.142636,58.6046399 C119.142636,76.3967014 113.497017,94.3171239 90.4169793,94.3171239 C88.6410264,94.3171239 87.4310489,94.271522 86.7254172,94.2338019 L86.7254172,130.957972 C86.7254172,143.545787 95.1014014,147.949467 95.1014014,147.949467 C95.1014014,147.949467 86.0531447,147.235037 81.7051416,147.235037 C77.3582693,147.235037 68.6226843,147.915125 68.6226843,147.915125 C68.6226843,147.915125 76.3286576,143.982665 76.3286576,130.917437 L76.3286576,40.9150419 C76.3286576,23.9511335 64.8655347,21.059635 64.8655347,21.059635 C64.8655347,21.059635 68.6526511,21.767872 74.041574,21.767872 C79.8347652,21.767872 82.3960726,20.9177624 90.648232,20.9177624 L90.648232,20.9177624 Z M93.7212355,90.647578 C103.557674,90.647578 108.718736,78.2703204 108.718736,58.8748734 C108.718736,40.2101829 105.072973,25.0388234 91.1921564,25.0388234 C88.5997515,25.0388234 86.7254172,25.8675395 86.7254172,25.8675395 L86.7254172,88.1569259 C87.8562373,89.068964 90.302201,90.647578 93.7212355,90.647578 L93.7212355,90.647578 Z M150.100531,142.870766 C168.325393,142.870766 172.817575,133.895073 172.817575,133.895073 L172.893906,147.951719 C153.296229,147.951719 150.087527,146.558891 142.309746,146.558891 C134.531401,146.558891 125.686126,147.951719 125.686126,147.951719 C125.686126,147.951719 132.294638,142.203064 132.294638,125.88096 L132.294638,34.585948 C132.294638,24.0778055 128.123609,20.9374669 128.123609,20.9374669 C128.123609,20.9374669 132.52476,21.7222701 137.584049,21.7222701 C142.642207,21.7222701 146.321896,20.9374669 146.321896,20.9374669 C146.321896,20.9374669 143.174258,24.6661264 143.174258,32.7207738 L143.174258,142.300461 C143.174258,142.300461 145.036719,142.870766 150.100531,142.870766 L150.100531,142.870766 Z" id="Fill-1" fill="#000101" mask="url(#mask-2)"></path>
                </g>
            </g>
        </g>
    </g>
</svg>