<?xml version="1.0" encoding="UTF-8"?>
<svg width="32px" height="32px" viewBox="0 0 32 32" version="1.1" xmlns="http://www.w3.org/2000/svg" xmlns:xlink="http://www.w3.org/1999/xlink">
    <!-- Generator: Sketch 63.1 (92452) - https://sketch.com -->
    <title>Logo — Bloom 4</title>
    <desc>Created with Sketch.</desc>
    <g id="→-Symbols" stroke="none" stroke-width="1" fill="none" fill-rule="evenodd">
        <g id="Header" transform="translate(-1313.000000, -75.000000)" fill="#000000">
            <g id="Group" transform="translate(1313.000000, 74.540809)">
                <g id="Logo-—-Bloom-4" transform="translate(0.000000, 1.000000)">
                    <path d="M3.42386209,22.004652 C3.49187049,21.9450016 3.5095023,21.8689473 3.48809225,21.7854368 C3.4795912,21.7514361 3.46573763,21.7189266 3.45251378,21.6864172 C3.42008385,21.6070821 3.38796877,21.5280454 3.35364971,21.4499034 C3.30232856,21.3329886 3.28627102,21.2089158 3.27588085,21.0845448 C3.26706495,20.9750863 3.31271873,20.9154359 3.42134326,20.8817335 C3.46101483,20.8692069 3.50289037,20.8611541 3.54445106,20.8548908 C3.82309659,20.8116443 4.08064692,20.7117299 4.33095562,20.5924291 C4.38668472,20.5655864 4.44587722,20.5357612 4.48712305,20.4931112 C4.69177796,20.2807558 4.77552905,20.0355928 4.70342755,19.7483762 C4.64769844,19.5258802 4.39518577,19.3290339 4.08851826,19.4507207 C3.97202239,19.4969498 3.85710079,19.5464596 3.74091977,19.5935834 C3.68298669,19.6171453 3.62536846,19.6430932 3.5652314,19.6606901 C3.40245204,19.7090069 3.25258167,19.6821642 3.12191739,19.5756883 C3.08633892,19.5467579 3.05013074,19.5154414 3.02368303,19.4790547 C2.89868611,19.3048755 2.74440779,19.1542583 2.59800082,18.9973778 C2.49441395,18.8864281 2.4437225,18.7599693 2.45127899,18.6141241 C2.45726121,18.5046656 2.46607712,18.3946107 2.48465349,18.2866435 C2.51204576,18.1240962 2.48654261,17.9678122 2.43522145,17.8148089 C2.38736369,17.6722445 2.28283226,17.6054361 2.12509055,17.6075238 C2.07282484,17.6084186 2.02087398,17.6191557 1.96860826,17.625419 C1.87131847,17.6367525 1.79197533,17.6054361 1.73278284,17.5323644 C1.70413115,17.4968724 1.6827211,17.4563101 1.65438426,17.4202216 C1.59487691,17.3441674 1.54135178,17.2615516 1.47082455,17.1965327 C1.36408915,17.0984078 1.29828472,16.9832826 1.26491023,16.8496657 C1.24287047,16.7622779 1.22649808,16.6739953 1.20760686,16.5863092 C1.19091961,16.5081672 1.17927002,16.4288322 1.15597085,16.3524797 C1.11598443,16.2233367 1.06497813,16.0971761 1.02625112,15.9677348 C0.995395459,15.8648378 0.922349399,15.7905731 0.83828346,15.7350983 C0.769015645,15.6894657 0.675504094,15.7133259 0.592382716,15.7303262 C0.582307397,15.732414 0.571917225,15.7365895 0.561841906,15.7374843 C0.445346035,15.7497126 0.370725707,15.8060822 0.329794725,15.9125581 C0.308384673,15.9671383 0.27154679,16.0190341 0.231875223,16.0643684 C0.17299758,16.1311768 0.133640867,16.204845 0.115379352,16.2895486 C0.0886167867,16.4169022 0.0643730513,16.544554 0.0341470956,16.6710128 C-0.00552447132,16.8389286 -0.00867300838,17.008634 0.0146261658,17.1768481 C0.0435927068,17.3847297 0.104359472,17.5866462 0.168904482,17.7870715 C0.188110558,17.8458271 0.218651367,17.8953369 0.263990301,17.9397765 C0.380486172,18.0549017 0.487221578,18.1798693 0.610644231,18.2875382 C0.766811669,18.4232429 0.82474475,18.5905622 0.829152702,18.7820399 C0.831671532,18.8917966 0.82978241,19.0015533 0.82978241,19.1110118 L0.816558554,19.1110118 C0.81278031,19.2356811 0.808057504,19.3603504 0.805538674,19.4850197 C0.804908967,19.5148449 0.805538674,19.5458631 0.814039724,19.574197 C0.859378658,19.7224282 0.905977007,19.8706594 0.956353599,20.0176976 C0.97083687,20.0597512 0.996025166,20.0994187 1.02278773,20.1358054 C1.09362982,20.231246 1.14306185,20.3347394 1.17391751,20.4468822 C1.18304827,20.4805846 1.19501271,20.5136906 1.20855142,20.5462001 C1.2453893,20.6344826 1.31182343,20.6950278 1.40533498,20.7293267 C1.57094803,20.7895736 1.73939477,20.8182058 1.91539799,20.7716785 C1.94058628,20.7648187 1.96608943,20.7579589 1.99190744,20.7540816 C2.06243467,20.7436428 2.11879348,20.7678012 2.14901944,20.8283464 C2.17357803,20.8775579 2.19120983,20.9303485 2.20632281,20.9831391 C2.22993684,21.0663514 2.20695252,21.1412126 2.14776002,21.2056351 C2.1200529,21.2357585 2.08856752,21.2623029 2.05991584,21.2918299 C1.93019611,21.424552 1.81842305,21.5683094 1.74569184,21.7374182 C1.70759454,21.8259991 1.70350144,21.9115974 1.75135921,21.9968974 C1.78378914,22.0541618 1.81338539,22.1132157 1.85179754,22.1663045 C1.96105177,22.3187112 2.11564494,22.3956602 2.31053939,22.3804494 C2.66097156,22.3536067 2.99440164,22.2671137 3.29918002,22.0956188 C3.34388925,22.0705656 3.38544994,22.0383544 3.42386209,22.004652 M0.679282338,13.5283323 C0.730603492,13.6094568 0.776886987,13.6938621 0.821596213,13.7782674 C0.868824269,13.8674447 0.906606714,13.9613941 0.957298161,14.0484836 C1.05710679,14.2199785 1.21327422,14.3130331 1.42139252,14.3104053 C1.62069492,14.3076645 1.79480902,14.2447334 1.89997016,14.070256 C1.96010721,13.9706399 2.01111351,13.8662517 2.03819093,13.752916 C2.06810203,13.6264571 2.09832799,13.4997001 2.13390646,13.3744343 C2.16633639,13.2622915 2.17609686,13.1480611 2.17200376,13.0332341 C2.16822551,12.913635 2.15563136,12.794036 2.14429663,12.6747353 C2.1288688,12.5106967 2.11060728,12.3469564 2.09297548,12.1775493 C2.10682904,12.0525817 2.11690436,11.9231404 2.13579558,11.7948921 C2.15248283,11.6857319 2.21324959,11.6099759 2.33982078,11.6001336 C2.36060113,11.5983441 2.38106662,11.5917825 2.40216182,11.589993 C2.50511898,11.5810454 2.59579684,11.5416762 2.6770291,11.4844118 C3.0469822,11.2219501 3.28753044,10.8834342 3.35742796,10.4444074 C3.36844784,10.3755112 3.38293111,10.306615 3.40276689,10.2395083 C3.42260268,10.1715069 3.46164454,10.1115582 3.51737364,10.0629431 C3.60080987,9.98957318 3.67794903,9.97973086 3.77555368,10.0369952 C3.83380162,10.0706977 3.88512277,10.1145407 3.94211129,10.1506292 C4.15369298,10.2854391 4.38259162,10.3155625 4.61999132,10.228473 C4.9200469,10.1187163 5.20971231,9.98599415 5.48867269,9.83358742 C5.60674283,9.769165 5.69049392,9.67432089 5.73929624,9.55323061 C5.79471049,9.41543822 5.81391657,9.2734703 5.78589459,9.12673036 C5.74685273,8.92183129 5.63633908,8.75570496 5.47765281,8.61642131 C5.42381283,8.56899926 5.36493519,8.52605098 5.30889123,8.48071669 C5.19932214,8.39124111 5.1621694,8.27551936 5.18106062,8.14369201 C5.18924682,8.08493638 5.20845289,8.02707551 5.22576985,7.96981114 C5.24875417,7.89286215 5.27110878,7.8156149 5.29976047,7.74075366 C5.37217682,7.55106544 5.38823436,7.36376323 5.30196444,7.17168899 C5.26481171,7.08877496 5.25882949,6.99721162 5.29188913,6.90743779 C5.37186197,6.69001213 5.4682072,6.48004278 5.60957652,6.29065281 C5.68482655,6.19044016 5.7824312,6.11647368 5.90270532,6.07024463 C5.94678483,6.05324427 5.9905495,6.03654217 6.03494387,6.02043656 C6.376875,5.894276 6.69393268,5.73113219 6.95872464,5.4841796 C7.04436485,5.40394983 7.13945067,5.32998336 7.2392593,5.2664557 C7.36551563,5.18652418 7.4439142,5.08273251 7.4772887,4.94434362 C7.50468097,4.83190264 7.55190903,4.72661971 7.60480445,4.62282804 C7.63691953,4.56049339 7.65927414,4.49338671 7.68005448,4.42657828 C7.70524278,4.34485725 7.68320302,4.2670135 7.63566011,4.19781905 C7.60700842,4.15666028 7.56922598,4.1205718 7.53427722,4.08358856 C7.41683679,3.95951576 7.2738932,3.94162065 7.11646635,4.00007802 C7.05790356,4.02185041 7.0018596,4.05078085 6.94644535,4.07881653 C6.85261895,4.12653684 6.75532915,4.13518615 6.65615023,4.10088717 C6.59223493,4.07881653 6.52737507,4.05465813 6.46944199,4.02155216 C6.29942098,3.92432203 6.12215835,3.90940944 5.93796893,3.97204234 C5.81926908,4.01230635 5.70529204,4.0659917 5.58596249,4.10416795 C5.44427832,4.14950224 5.33439438,4.22973201 5.25568095,4.34754152 C5.16090998,4.48980768 5.0308754,4.59747663 4.88856153,4.69411025 C4.79032717,4.76091868 4.68894428,4.8247446 4.597007,4.89900932 C4.48712305,4.9878884 4.36968262,5.06066187 4.23366582,5.10689092 C4.14771076,5.1361196 4.07655382,5.18503292 4.01358308,5.24796408 C3.91188533,5.34936973 3.80766876,5.44838937 3.70124821,5.54532125 C3.57215819,5.6628325 3.43991963,5.77765949 3.30831078,5.89278474 C3.20944672,5.97957605 3.13828978,6.08426247 3.09074687,6.20207198 C2.98558573,6.46334067 2.89301874,6.72818838 2.86310764,7.00914169 C2.85145805,7.11502113 2.87538694,7.20777747 2.95095182,7.28621773 C2.99345708,7.33035902 3.04005542,7.37092128 3.08633892,7.41208004 C3.14742054,7.4669584 3.21511408,7.51646822 3.26958377,7.57671511 C3.32373861,7.63696199 3.36970725,7.70496343 3.41000853,7.77415788 C3.45345834,7.84812436 3.45062466,7.92805587 3.41189765,8.00500487 C3.38922818,8.05004091 3.36403989,8.09388394 3.340111,8.13832348 C3.2462846,8.31459037 3.10428558,8.42404882 2.89270389,8.45745304 C2.5961117,8.50398034 2.36626849,8.65280805 2.2056931,8.89469036 C2.09140121,9.06767648 1.94090114,9.20457411 1.75513745,9.30657627 C1.63328907,9.37368295 1.54198149,9.46763231 1.47145426,9.58216105 C1.43146784,9.64688171 1.39022201,9.71100588 1.34456822,9.77184927 C1.2236644,9.93230881 1.16950956,10.1106635 1.17895517,10.3069132 C1.18903049,10.5162861 1.1984761,10.7259572 1.207292,10.93533 C1.20886627,10.9702255 1.21075539,11.0054192 1.20760686,11.0400165 C1.1896602,11.2505823 1.15282231,11.4539901 1.0202689,11.6341343 C0.960761551,11.7149606 0.92329396,11.8101029 0.875121343,11.898982 C0.848988486,11.9475971 0.824429897,11.9974051 0.795463356,12.0445289 C0.751068983,12.1181972 0.698488415,12.1876899 0.657872286,12.2631476 C0.624812647,12.3248857 0.593956984,12.3907994 0.581047982,12.4582044 C0.526893145,12.7406489 0.525948584,13.0245848 0.586400495,13.3070293 C0.603402595,13.3857678 0.635517673,13.4588396 0.679282338,13.5283323 M7.39448217,7.06938858 C7.38724054,7.14305681 7.38881481,7.2188128 7.39794556,7.29218277 C7.40550205,7.35600868 7.42502298,7.41983459 7.4473776,7.48067799 C7.50877407,7.64471654 7.52262763,7.81114112 7.48956799,7.98203947 C7.4820115,8.02111047 7.47697384,8.06137448 7.47697384,8.10104199 C7.47634414,8.25613299 7.41872591,8.39362713 7.33465997,8.52306846 C7.26791098,8.62566712 7.18951241,8.71931823 7.09757513,8.80282877 C6.97572674,8.91288373 6.9168491,9.04620234 6.9291284,9.20815313 C6.94487108,9.30657627 6.95368698,9.40678892 6.97761587,9.50342254 C7.01665773,9.66089956 7.12843079,9.75007688 7.29624782,9.7760248 C7.31671331,9.77930557 7.33812336,9.77990207 7.3589037,9.78198984 C7.44296964,9.79034089 7.52609102,9.79988495 7.61015696,9.80734125 C7.66777519,9.81211328 7.72539342,9.81539405 7.7833265,9.81718356 C7.84913092,9.81927133 7.90895313,9.79928845 7.95932972,9.7605157 C8.0084469,9.72323421 8.05410069,9.68177719 8.10038418,9.64091668 C8.13879633,9.60691596 8.17343024,9.56844146 8.21404637,9.53712501 C8.31385499,9.46077251 8.39571696,9.46017601 8.5015078,9.5290722 C8.54023481,9.55442362 8.57707269,9.59230161 8.61989279,9.60065267 C8.74646398,9.62510932 8.85634793,9.68326845 8.97001012,9.73486603 C9.12271416,9.80435873 9.27636277,9.79869194 9.42906682,9.73784855 C9.58177087,9.67730341 9.71810252,9.59289812 9.82987559,9.47687812 C9.87175113,9.43303508 9.91299696,9.38412177 9.93755555,9.33043642 C10.0688495,9.04679884 10.1283569,8.75033643 10.093723,8.44015443 C10.0839625,8.35574913 10.070109,8.27194034 10.0597188,8.1878333 C10.029178,7.94326672 10.1015943,7.7237533 10.2445379,7.52362626 C10.345606,7.38225485 10.4718623,7.26295408 10.6214178,7.16512745 C10.6991867,7.11442462 10.7741218,7.05656375 10.8386669,6.99154483 C10.9699609,6.85882272 11.0027056,6.70283697 10.9176951,6.53581589 C10.851261,6.40577805 10.7769555,6.27902098 10.7023352,6.15315867 C10.6569963,6.07650792 10.5874136,6.02192782 10.49831,5.9959799 C10.3877964,5.9637687 10.2769678,5.93006623 10.1636205,5.9103816 C9.98257963,5.87906515 9.80752097,5.90739908 9.64064851,5.98285682 C9.48637019,6.05264777 9.35192766,6.14600062 9.23983974,6.26888042 C9.18474034,6.3291273 9.12838153,6.38907594 9.06729991,6.44395429 C8.9640279,6.53671064 8.84343893,6.54327219 8.71529347,6.49435887 C8.61768882,6.45737563 8.54905071,6.3911637 8.49521073,6.30824967 C8.46246594,6.25724859 8.43223999,6.2038615 8.3947724,6.15614119 C8.3103916,6.04847224 8.19452544,6.01178726 8.0594532,6.04727923 C7.99427848,6.06427959 7.93036318,6.09142052 7.87211524,6.12452648 C7.61991743,6.26858216 7.49240168,6.49018334 7.4439142,6.75861008 C7.42502298,6.86210349 7.4051872,6.96529866 7.39448217,7.06938858 M8.99330929,2.58606565 C9.03770366,2.61261007 9.08902482,2.62990868 9.13090036,2.65943562 C9.34783456,2.81363187 9.58303028,2.82884271 9.83585781,2.7563675 C9.96211414,2.72057727 10.0918339,2.69731362 10.2259615,2.71520873 C10.302471,2.7253493 10.3723685,2.70476991 10.4334501,2.65943562 C10.487605,2.61917161 10.5436489,2.58129362 10.593081,2.53685408 C10.7120957,2.42858863 10.8437045,2.33941131 10.9967234,2.27826966 C11.1069222,2.23412838 11.1906733,2.15926714 11.2542738,2.06412478 C11.2907968,2.00924643 11.3276347,1.95436807 11.3619537,1.89829671 C11.5093053,1.65790566 11.72498,1.4858143 11.9721402,1.34503939 C12.0124415,1.32237224 12.0590398,1.30924916 12.1031193,1.29344181 C12.1752208,1.26719564 12.2482669,1.26600263 12.319109,1.29493307 C12.3962481,1.32654777 12.474017,1.35846073 12.5467482,1.39842648 C12.6660778,1.46434016 12.7854073,1.46881394 12.9097745,1.41751461 C12.9677076,1.39365445 13.0243813,1.36711003 13.0823144,1.34235512 C13.1638615,1.30745965 13.2447789,1.27166942 13.3275854,1.23945821 C13.4954024,1.17414104 13.6591264,1.18786063 13.8121453,1.27763445 C13.8788942,1.31700371 13.9415501,1.36382926 14.0007426,1.41304083 C14.0942542,1.49058633 14.1115711,1.58900946 14.0756778,1.69936268 C13.9846851,1.981509 13.795458,2.17388149 13.5010698,2.27379588 C13.4053543,2.30630534 13.3260111,2.29318226 13.2586324,2.21981228 C13.2277768,2.18581157 13.1984954,2.14942483 13.1632318,2.12019614 C13.0114723,1.99582509 12.8360988,1.92513938 12.6390003,1.98508802 C12.3628736,2.06949331 12.1235848,2.20758396 11.9686768,2.45572956 C11.8446244,2.65466359 11.662639,2.81064935 11.5030082,2.98303896 C11.4825427,3.0051096 11.4576692,3.02539073 11.4315364,3.04149634 C11.2892225,3.12739289 11.1506869,3.21985099 11.0023908,3.29441397 C10.8673185,3.36241541 10.7369691,3.43638189 10.60599,3.51034836 C10.3959825,3.62905263 10.2420191,3.79517895 10.1056874,3.9815864 C10.0194175,4.09939591 9.97344888,4.23122327 9.95266853,4.37110342 C9.93409216,4.5002465 9.9671518,4.61954727 10.0509029,4.72393544 C10.1655096,4.86739462 10.2753936,4.89423729 10.4501374,4.8247446 C10.4794188,4.81341102 10.5071259,4.79820017 10.537037,4.78805961 C10.5962295,4.76807673 10.6557369,4.74570784 10.7171333,4.73318125 C10.9772025,4.67919766 11.1966555,4.74421658 11.3663617,4.94344886 C11.4025698,4.98609889 11.4353146,5.03143318 11.4699485,5.07557446 C11.5483471,5.17578711 11.6503597,5.24438505 11.7791349,5.27092947 C11.923023,5.30045642 12.0675409,5.32819384 12.2133181,5.34907148 C12.3480755,5.36845785 12.4419019,5.30821097 12.4692942,5.18264691 C12.4856666,5.11017169 12.4885003,5.03381919 12.4844072,4.95985272 C12.4768507,4.81370927 12.4302523,4.67561863 12.3704301,4.54140527 C12.3357962,4.46326326 12.2992732,4.38512126 12.2715661,4.30489149 C12.2322094,4.19215226 12.2284311,4.07702702 12.2895127,3.97025283 C12.3908956,3.79368769 12.540766,3.66245684 12.7318822,3.57745505 C12.8524712,3.52406795 12.9148122,3.55270014 12.960466,3.67587818 C12.9881731,3.75103767 13.0108426,3.82828491 13.0350863,3.90463741 C13.1166334,4.16083581 13.2904327,4.33650619 13.5511315,4.43582409 C13.6049715,4.45640347 13.6603858,4.47310558 13.7154852,4.49010594 C13.896526,4.54558079 14.0772521,4.55035282 14.2579781,4.48831642 C14.3322836,4.46296501 14.4075336,4.43970136 14.4824688,4.41613946 C14.6909019,4.35082229 14.8341604,4.21720542 14.9194857,4.02960496 C15.0148864,3.81874085 15.1027306,3.60459597 15.1934085,3.39194235 C15.252601,3.2532552 15.3092746,3.11337505 15.3713008,2.97588091 C15.4380498,2.82854446 15.5611576,2.7414549 15.7211033,2.6949276 C15.9370929,2.63199644 16.0605156,2.67703249 16.1681955,2.86343994 C16.2516318,3.00839037 16.3183808,3.15930585 16.3662385,3.31916888 C16.4477856,3.58998163 16.5743568,3.8420045 16.7484709,4.07106198 C16.8196279,4.16441483 16.8996007,4.25090789 16.9975202,4.32040059 C17.1284993,4.41375344 17.2717578,4.44477164 17.4294995,4.3922793 C17.5441062,4.35440131 17.658713,4.31741807 17.770486,4.27357504 C17.9304317,4.21153864 18.0601515,4.11132599 18.1577561,3.97532311 C18.2021505,3.91328671 18.24623,3.85125031 18.2899947,3.78891566 C18.3432049,3.71315967 18.4096391,3.64993026 18.4836297,3.59296415 C18.5670659,3.52913823 18.6577438,3.50259381 18.7638495,3.52585746 C18.8047805,3.53480502 18.8460263,3.54226132 18.8879018,3.5467351 C19.0176216,3.56015643 19.1331729,3.60787674 19.2345558,3.68214147 C19.3176772,3.74328312 19.3948163,3.81188106 19.4738446,3.87779473 C19.5953781,3.97920039 19.6252892,4.09999242 19.5613739,4.24225859 C19.5405936,4.28818938 19.5254806,4.33590969 19.5103676,4.38363 C19.4876982,4.45550871 19.4628247,4.52708917 19.4473969,4.6001609 C19.4253571,4.70425082 19.423468,4.80893724 19.4691218,4.90944814 C19.5229618,5.0269594 19.6117505,5.0734867 19.7471376,5.05767935 C19.8113678,5.0499248 19.8686711,5.0263629 19.9215666,4.99236218 C20.0046879,4.93927333 20.086235,4.88379848 20.170301,4.83249915 C20.2631828,4.77583128 20.3573241,4.72035642 20.4536693,4.66905709 C20.5767771,4.60373992 20.7068117,4.60791545 20.8362166,4.65056547 C20.8806109,4.66517982 20.9240608,4.68456619 20.9653066,4.70633858 C21.1397355,4.79969143 21.3283329,4.83697292 21.5257462,4.84353447 C21.6312222,4.84741174 21.7366982,4.85039426 21.8415445,4.85874531 C21.9870069,4.87007889 22.1145226,4.83309565 22.2184243,4.73705853 C22.3015457,4.66070604 22.37837,4.57838851 22.4551943,4.49607097 C22.4791232,4.47042131 22.4973847,4.43850835 22.5124977,4.4071919 C22.5568921,4.31443555 22.5411494,4.23092501 22.4630657,4.16143231 C22.4287466,4.13101062 22.3887602,4.10327319 22.3465698,4.08537807 C22.2455018,4.0430263 22.1425446,4.00485005 22.0386429,3.96965633 C21.9596146,3.94281365 21.8774378,3.92342728 21.7968352,3.90076013 C21.6655412,3.86407515 21.5666772,3.7880209 21.4819815,3.68601875 C21.3686342,3.54882286 21.2458412,3.41818852 21.1249374,3.28636117 C21.0695232,3.22611428 21.0049782,3.17302544 20.9527124,3.11069078 C20.850385,2.98781099 20.7124791,2.93531865 20.5544225,2.92338858 C20.4445386,2.91473927 20.3337101,2.91473927 20.2228816,2.91056374 C20.2228816,2.91384451 20.2228816,2.91682703 20.2225667,2.91980955 C20.1438533,2.91980955 20.064825,2.92189732 19.9857967,2.9195113 C19.7071512,2.91116025 19.4596762,2.82914097 19.2547064,2.64392652 C19.21472,2.60783804 19.1857534,2.56846878 19.1857534,2.51478344 C19.1857534,2.41993933 19.1829198,2.32479696 19.1882723,2.2302511 C19.1933099,2.15031959 19.2087378,2.06979157 19.2732828,2.00984293 C19.3970203,1.89561244 19.5176093,1.77571517 19.7052621,1.75811831 C19.8375006,1.74529347 19.9747768,1.73425815 20.092847,1.79450504 C20.3104109,1.90575301 20.518844,2.03251008 20.7310554,2.1527056 C20.7899331,2.22667208 20.8755733,2.24963748 20.9659363,2.26037455 C21.0733014,2.27319938 21.147292,2.32688473 21.2080588,2.41039526 C21.2892911,2.52074848 21.3796541,2.62513665 21.468128,2.73071783 C21.5392849,2.81631613 21.6327964,2.87059798 21.7455141,2.89087912 C21.911442,2.92070431 22.077055,2.94963474 22.2432978,2.97438965 C22.2892664,2.98124945 22.3390133,2.97856518 22.384982,2.96991588 C22.6415877,2.92040606 22.8786726,2.82615845 23.084272,2.67106745 C23.2237522,2.56638102 23.3282837,2.43634318 23.3695295,2.2681291 C23.4189615,2.06412478 23.3506383,1.93140267 23.1547993,1.83775157 C23.032636,1.77929419 22.9145659,1.71308226 22.7930324,1.65462489 C22.699206,1.60958885 22.604435,1.56514931 22.5062006,1.53025383 C22.3135102,1.46076114 22.1116889,1.42198839 21.9086083,1.39067193 C21.7826668,1.37158381 21.6642818,1.33549533 21.551879,1.27584494 C21.4004344,1.19501867 21.2458412,1.11956093 21.0909332,1.04440145 C20.9961623,0.998172401 20.9086329,0.942399291 20.8381057,0.867239806 C20.6706035,0.689779911 20.4653189,0.576444179 20.2191033,0.530215131 C20.2087131,0.528127367 20.198323,0.5254431 20.1882476,0.523057085 C20.0503417,0.490249373 19.9136952,0.455055646 19.7827161,0.39987904 C19.6649608,0.350667472 19.537445,0.331281097 19.4108738,0.355439503 C19.126561,0.40912485 18.8680661,0.321737036 18.61209,0.228980687 C18.5305429,0.199453746 18.4612751,0.138908606 18.3888587,0.0891005343 C18.2811788,0.0145375531 18.1624789,-0.0140946317 18.0308701,0.00648475111 C17.9893094,0.0130462935 17.947119,0.0196078358 17.9074474,0.0318361647 C17.7515948,0.0801529765 17.5913343,0.108486909 17.4301292,0.135329583 C17.3318948,0.151733438 17.2339753,0.172312821 17.1360558,0.1922957 C17.0085401,0.218243618 16.8977116,0.274911483 16.8117565,0.36736958 C16.7528789,0.43089724 16.6999834,0.499495183 16.6502366,0.569882637 C16.6033234,0.636094564 16.5642815,0.707376774 16.5217762,0.776272969 C16.425431,0.93136397 16.2868954,1.0446997 16.1228566,1.130298 C16.0246222,1.18159733 15.9188314,1.20963302 15.8051692,1.21022952 C15.5432109,1.21112428 15.4141209,1.10256057 15.3873583,0.857993996 C15.3864138,0.848151683 15.3867286,0.838011117 15.3851544,0.828168804 C15.3747642,0.759272609 15.3662631,0.689779911 15.3530393,0.621181968 C15.3152568,0.421353178 15.1937233,0.291017087 14.9919021,0.221524389 C14.9087807,0.193190456 14.8275485,0.154417706 14.7519836,0.110574673 C14.6147074,0.0312396609 14.4705044,0.00260747609 14.3127626,0.0288536455 C14.1207019,0.0610648533 13.9295857,0.0965568324 13.7435071,0.154417706 C13.5668742,0.20929606 13.3848888,0.23405097 13.1981805,0.216454106 C13.0473656,0.201839762 12.9028478,0.225998168 12.7671458,0.287736316 C12.6371112,0.346790197 12.5004647,0.381387421 12.3581508,0.395107009 C12.2249677,0.407931842 12.0987114,0.442827317 11.9819007,0.502477702 C11.7948776,0.597918318 11.5965197,0.633112045 11.3865123,0.618795953 C11.2281409,0.607760631 11.0855122,0.651603664 10.9485508,0.723184126 C10.8244984,0.788501298 10.6982421,0.851134202 10.5697818,0.908696823 C10.302471,1.0285941 10.0436613,1.16250921 9.79964963,1.32058273 C9.59499472,1.45300659 9.38939525,1.58423743 9.18820373,1.72083681 C9.11137943,1.7730309 9.04179676,1.83536555 8.97504777,1.89889321 C8.89538979,1.9746492 8.84816173,2.07008982 8.82076946,2.17328498 C8.77448596,2.34716586 8.83430817,2.49002853 8.99330929,2.58606565 M31.7978483,17.125847 C31.7159864,17.0381609 31.6690732,16.9334745 31.6448294,16.8177527 C31.6316056,16.7545233 31.6139738,16.6906974 31.5859518,16.63224 C31.525185,16.5036935 31.4291546,16.4532889 31.2830625,16.4646225 C31.251892,16.4673067 31.2200918,16.4714823 31.1901807,16.4795351 C30.9952862,16.5326239 30.8262098,16.471184 30.6656344,16.3751469 C30.595422,16.3330934 30.5541762,16.2695657 30.5403226,16.1920202 C30.5173383,16.0625789 30.5283582,15.932541 30.5500831,15.8042927 C30.5639367,15.7225717 30.6221846,15.6730619 30.7112882,15.6620265 C30.7424587,15.6581493 30.7745738,15.660237 30.8057443,15.6560615 C30.8787904,15.6465174 30.9537256,15.6417454 31.0239379,15.6229555 C31.1889213,15.5791125 31.3183261,15.4923212 31.3838157,15.3339494 C31.4068,15.2784746 31.4341923,15.2238945 31.4656777,15.1722969 C31.51448,15.0926636 31.542502,15.0076618 31.5484842,14.9169932 C31.5563555,14.8063418 31.5872112,14.7010588 31.6196411,14.5954777 C31.6429403,14.5191252 31.6574236,14.4403866 31.6731663,14.3619464 C31.6819822,14.3181034 31.6804079,14.2718743 31.6917426,14.2286278 C31.7342479,14.066677 31.7298399,13.9017437 31.7298399,13.7371086 C31.7298399,13.5933512 31.6624612,13.4844892 31.5305375,13.4200668 C31.4275804,13.3702587 31.3183261,13.3329773 31.2093868,13.2956958 C31.056053,13.2435017 30.9046084,13.2646776 30.767647,13.3401353 C30.5425266,13.4636116 30.3687274,13.6330187 30.2827723,13.8722167 C30.2342848,14.0067284 30.2021698,14.1418365 30.2509721,14.2826114 C30.2560097,14.2969275 30.2569543,14.3121383 30.2591583,14.3270509 C30.2711227,14.3956489 30.2528612,14.4535097 30.1996509,14.5045108 C30.0088496,14.687041 29.7887668,14.8328862 29.5453849,14.9435376 C29.4081087,15.0061706 29.2635909,15.0553821 29.1193879,15.1028042 C28.9862047,15.1469455 28.8942675,15.229263 28.8363344,15.347669 C28.8164986,15.3882313 28.8023302,15.4314778 28.7894212,15.4747243 C28.6959096,15.7905731 28.7292841,16.0873338 28.9399213,16.3569535 C28.9773888,16.4049721 29.0123376,16.4553767 29.0460269,16.5057812 C29.1121462,16.6042044 29.1121462,16.7050135 29.0466567,16.8022436 C29.0041514,16.8651748 28.9594422,16.928106 28.9059171,16.9823878 C28.7906806,17.0990043 28.6738699,17.2150243 28.5495027,17.3220967 C28.4241909,17.4297657 28.3816856,17.5595053 28.3974283,17.7125085 C28.400262,17.7372634 28.4065591,17.7617201 28.4119116,17.7861767 C28.4374147,17.8983195 28.4610288,18.0110587 28.4893656,18.1226049 C28.5214807,18.2466777 28.4852725,18.3510659 28.3898718,18.4354712 C28.3404398,18.4793142 28.2828216,18.5165957 28.2248885,18.5499999 C28.1439711,18.5968255 28.0561269,18.6332122 27.9764689,18.6818273 C27.9153873,18.7191088 27.8495829,18.7599693 27.8077073,18.8142511 C27.6134426,19.0680635 27.4919091,19.3439465 27.5589729,19.6678481 C27.5662145,19.7021471 27.5665294,19.7373408 27.5703076,19.7722363 C27.5907731,19.9592403 27.6613004,20.1307351 27.7548119,20.2941772 C27.8184124,20.4045304 27.9223141,20.457321 28.0539229,20.4582157 C28.0957985,20.458514 28.1379889,20.4522507 28.1801793,20.4501629 C28.3127327,20.4430049 28.3517745,20.4877427 28.3221783,20.6118155 C28.3209189,20.6168858 28.3196595,20.6216578 28.3180852,20.6264298 C28.2645601,20.8000124 28.1896249,20.9649458 28.0813152,21.1140717 C27.9594668,21.2822858 27.7897607,21.3857792 27.5803829,21.430517 C27.4541266,21.4576579 27.3395199,21.4427453 27.248842,21.344024 C27.1880752,21.2781103 27.1093618,21.2390393 27.0230919,21.2107053 C26.988458,21.1990735 26.9538241,21.1865469 26.9191902,21.1746169 C26.8178073,21.1397214 26.7362602,21.078878 26.6651032,21.001929 C26.5759996,20.9049971 26.5328647,20.8000124 26.5810373,20.6714659 C26.6021325,20.6150962 26.615986,20.5563406 26.6307842,20.4981815 C26.65062,20.420636 26.6714003,20.3430905 26.6852539,20.2646502 C26.7239809,20.0457333 26.6490457,19.8614136 26.4862663,19.7060244 C26.4343155,19.6565146 26.3779566,19.6111803 26.3278949,19.5598809 C26.2548488,19.485318 26.1692086,19.4277553 26.0709743,19.3889826 C25.9884826,19.3567714 25.9034721,19.3287357 25.8184616,19.3027878 C25.626086,19.2443304 25.4526016,19.2902612 25.3005273,19.4062812 C25.0417175,19.6046187 24.8861798,19.8682734 24.7907791,20.1656306 C24.7696839,20.2318425 24.7624423,20.3028265 24.7574046,20.3723192 C24.7470145,20.5160766 24.799595,20.6392547 24.9195543,20.7287302 C25.002046,20.7898719 25.0905198,20.8453467 25.1818274,20.89426 C25.3395691,20.9780688 25.4793642,21.0830535 25.6119176,21.1978805 C25.6748883,21.2527589 25.7243204,21.3174795 25.7504532,21.3956215 C25.7828831,21.4916587 25.7765861,21.5829237 25.6994469,21.6610657 C25.6635536,21.6974525 25.6289197,21.7353305 25.5908224,21.7699277 C25.4910138,21.860298 25.4762156,21.967967 25.5187209,22.086373 C25.535723,22.1334968 25.5602816,22.1782346 25.5801174,22.2244636 C25.6018423,22.2751665 25.6232523,22.3261675 25.6440327,22.3771686 C25.6726843,22.4472578 25.667017,22.5179435 25.6270306,22.5793834 C25.5492617,22.6983859 25.4661403,22.8138094 25.3814447,22.9283382 C25.3361057,22.9891816 25.268727,23.0178138 25.1890691,23.0112522 C25.0842228,23.0026029 24.9790616,22.9939536 24.8751599,22.9796375 C24.7605532,22.9641284 24.646891,22.9408648 24.5325991,22.9232679 C24.4277528,22.9065658 24.3235362,22.9089518 24.2183751,22.9289347 C23.9916804,22.9712865 23.8553488,23.1004295 23.8008791,23.3095041 C23.7829324,23.3769091 23.781673,23.4487878 23.7608926,23.515298 C23.7164983,23.6539851 23.7476688,23.7819352 23.8078058,23.9074992 C23.9243017,24.1493816 24.1506815,24.2615243 24.4268082,24.2146987 C24.4787591,24.2057512 24.5300802,24.1941193 24.5810865,24.1824875 C24.709232,24.1538553 24.8370626,24.1216441 24.9655229,24.0959945 C25.0672207,24.0757133 25.1512866,24.1100123 25.1868651,24.1979966 C25.2517249,24.3587544 25.2910817,24.522793 25.2022929,24.6907088 C25.1405816,24.8073253 25.0719435,24.9191698 24.982525,25.0184877 C24.8301358,25.187 24.6487801,25.3074938 24.405713,25.3235994 C24.1953908,25.3376172 23.9856982,25.3546176 23.7756908,25.3704249 C23.7753759,25.3683372 23.7753759,25.3665477 23.7750611,25.3644599 C23.7221656,25.3644599 23.6695851,25.3623721 23.6170045,25.3650564 C23.5301049,25.3692319 23.4655599,25.3337399 23.4107753,25.2731948 C23.3364699,25.1914738 23.3112816,25.0987174 23.3358401,24.9943293 C23.3474897,24.9457142 23.3644918,24.8982921 23.3811791,24.8508701 C23.4479281,24.6581993 23.4312408,24.4768622 23.3018359,24.3101393 C23.2923903,24.297911 23.2848338,24.2850862 23.2766476,24.2722613 C23.1718014,24.1079245 23.0146894,24.0524497 22.8191652,24.068257 C22.6025459,24.0858539 22.4281169,24.1812945 22.2788763,24.3229642 C22.1434892,24.4509143 22.042736,24.6042157 21.9413531,24.7557277 C21.8739744,24.8559404 21.8774378,24.9648023 21.9363154,25.069787 C21.960874,25.1139283 21.9907851,25.1553853 22.0178625,25.1983336 C22.1434892,25.3957763 22.2410938,25.6051492 22.316029,25.8246626 C22.3465698,25.9147347 22.341847,26.001526 22.3072131,26.0883173 C22.2955635,26.116353 22.2823396,26.1434939 22.2691158,26.1706348 C22.1516754,26.4041661 21.9542621,26.5673099 21.7360685,26.7119621 C21.7190664,26.7232957 21.6992306,26.7316467 21.6793948,26.7385065 C21.5581761,26.78056 21.4605715,26.7462611 21.4007493,26.6365044 C21.3535212,26.5506078 21.3352597,26.4587462 21.3491133,26.3609196 C21.3648559,26.2460926 21.4023235,26.1372306 21.4464031,26.0301582 C21.4930014,25.9177172 21.5210234,25.8016972 21.5310987,25.6812034 C21.5418037,25.5568324 21.5115778,25.4423036 21.440106,25.3391085 C21.3450202,25.2025091 21.216245,25.0999104 21.059133,25.033102 C20.9196528,24.9737499 20.7826914,24.9841887 20.652342,25.0629272 C20.4999528,25.1544905 20.415572,25.2863179 20.3859758,25.4524442 C20.379049,25.4918135 20.3796787,25.5335687 20.36614,25.570552 C20.3104109,25.7253447 20.2225667,25.8389787 20.0279871,25.8616459 C19.7449336,25.8947518 19.4757337,25.9881047 19.2059041,26.0728082 C19.1145965,26.1011422 19.0336791,26.1503537 18.9691341,26.2180569 C18.8258757,26.3683759 18.7575524,26.5535903 18.876882,26.7677352 C18.9773203,26.9481776 19.1190045,27.0943211 19.2808393,27.2237624 C19.3318456,27.2646229 19.3970203,27.2941499 19.4612504,27.3141327 C19.5506689,27.3424667 19.6444953,27.3588705 19.7370623,27.3770639 C19.7987736,27.388994 19.8626889,27.392573 19.9240854,27.4053978 C20.0449892,27.430451 20.1048114,27.4886101 20.1004035,27.6013493 C20.0931618,27.7803005 20.0969401,27.9616377 20.0311356,28.1343255 C20.0191712,28.1662385 20.008781,28.2038182 20.0147633,28.2357312 C20.0431001,28.3836641 20.0852905,28.5280181 20.1926556,28.6458276 C20.3104109,28.7746724 20.435093,28.8960609 20.6032248,28.9676414 C20.6419518,28.983747 20.6806788,29.0007474 20.7156276,29.0222215 C20.8699059,29.1170656 21.0392972,29.1331712 21.2168747,29.1170656 C21.2760672,29.1116971 21.3299072,29.0976792 21.3799689,29.0669593 C21.5537682,28.9607816 21.7149733,28.8396913 21.8491009,28.6905654 C21.9060895,28.6264412 21.9539472,28.552773 21.9955079,28.47821 C22.0562747,28.3711376 22.0559598,28.2575036 22.0090466,28.1450626 C21.9898406,28.0985353 21.9649671,28.054394 21.9448165,28.008165 C21.9082934,27.9252509 21.909238,27.8420386 21.9552066,27.7627036 C21.9807098,27.7191588 22.0055832,27.6723333 22.0421063,27.6383326 C22.1242831,27.5613836 22.208349,27.4847328 22.3015457,27.4200122 C22.4359883,27.3266593 22.5864883,27.2938516 22.7492677,27.3555897 C22.7687886,27.363046 22.7892541,27.3687128 22.8090899,27.3746779 C22.9243264,27.4104681 23.0373588,27.4027136 23.1500765,27.3648356 C23.2971131,27.315624 23.4271477,27.2407628 23.5332534,27.1330938 C23.6195233,27.045706 23.7013853,26.9541427 23.779469,26.8601933 C23.8969094,26.7188219 24.059374,26.6529082 24.2341178,26.6063809 C24.2589912,26.5998194 24.2866983,26.6001176 24.3128312,26.6025036 C24.4390875,26.6138372 24.4998543,26.6949617 24.4680541,26.81128 C24.4576639,26.8494562 24.4371984,26.8852465 24.4227151,26.9228262 C24.3953229,26.9929154 24.3676157,27.0627064 24.3424274,27.1336903 C24.2945697,27.2705879 24.3269996,27.399731 24.3906001,27.5246986 C24.4362538,27.6147707 24.5092999,27.6762106 24.6097382,27.707527 C24.7155291,27.7400365 24.8244685,27.7680722 24.935297,27.7588263 C25.1081517,27.7448085 25.2832103,27.7319837 25.4519719,27.6958952 C25.6855933,27.6457889 25.9569972,27.4844346 25.9406249,27.1533749 C25.935902,27.0627064 25.9758885,26.9902311 26.0375998,26.923721 C26.1418164,26.81128 26.2441438,26.6967512 26.3455267,26.581626 C26.4317966,26.4837994 26.5369578,26.4146049 26.6619547,26.3647969 C26.777506,26.3182696 26.8899088,26.2616017 26.9975887,26.1995653 C27.1824079,26.0933876 27.3149613,25.9412791 27.4119362,25.7575559 C27.4956873,25.5985877 27.5369331,25.4285841 27.5618066,25.2558962 C27.5832166,25.1049807 27.5303212,24.9689778 27.4226412,24.8559404 C27.3732092,24.8040445 27.3171653,24.7581137 27.2636401,24.7100952 C27.1704434,24.6271811 27.0876369,24.5353195 27.0397791,24.4225803 C26.9594914,24.2325938 26.8779443,24.0438004 26.7554662,23.872902 C26.7060342,23.8043041 26.7019411,23.7240743 26.7318522,23.6426515 C26.7702644,23.5385616 26.8174924,23.4386472 26.8848711,23.3479786 C26.9308398,23.2862405 26.98405,23.2292744 27.0567812,23.1964667 C27.2387667,23.1132544 27.4283086,23.054797 27.6326487,23.0515162 C27.7721289,23.0491302 27.8964961,23.096254 27.9582074,23.2626786 C27.9874888,23.3423118 28.0255861,23.4201556 28.068721,23.4938238 C28.1430265,23.6196861 28.251651,23.715425 28.3949095,23.7658296 C28.6518301,23.8564982 28.9062319,23.8224974 29.1445762,23.7112495 C29.3023179,23.6378795 29.4282593,23.5206665 29.5072876,23.3664703 C29.5497929,23.2835562 29.6102448,23.2176425 29.6908473,23.1651502 C29.8835378,23.0395861 30.044428,22.8809161 30.197447,22.7153863 C30.2591583,22.6485779 30.3082755,22.5698394 30.3567629,22.4931886 C30.4398843,22.3607648 30.4493299,22.2182003 30.3983236,22.0741447 C30.3618006,21.9700547 30.3183508,21.8680526 30.2733267,21.7669452 C30.2251541,21.658978 30.1489595,21.5703972 30.0516697,21.4982202 C30.0019228,21.461237 29.9518611,21.424552 29.9017993,21.3881652 C29.8060838,21.319269 29.7399645,21.2312847 29.7100534,21.1206333 C29.6643996,20.9512262 29.6288212,20.7803278 29.6174864,20.6049557 C29.6105596,20.4907252 29.6411005,20.3878283 29.7091089,20.2938789 C29.7481507,20.2404918 29.7871926,20.1871047 29.8237156,20.1319281 C29.9169123,19.9905567 29.9483977,19.8372552 29.917542,19.6729184 C29.9043182,19.6043205 29.8882606,19.5360208 29.8747219,19.4674228 C29.8479593,19.3344025 29.8671654,19.2073472 29.9414709,19.0916254 C30.0425389,18.9338501 30.143607,18.7754784 30.2547503,18.6242646 C30.3945454,18.4336817 30.6533551,18.3758208 30.8724933,18.4754369 C30.9663197,18.5183852 31.021734,18.5860884 31.0182706,18.6871958 C31.0163814,18.7420742 31.0110289,18.7972508 30.9993793,18.8506379 C30.9820624,18.9287799 30.9578186,19.0054306 30.9373532,19.0826779 C30.8907548,19.2574535 30.8513981,19.4331239 30.855806,19.614461 C30.8567506,19.6591988 30.8586397,19.7054279 30.870919,19.7480779 C30.9071272,19.8742385 31.0141775,19.9249413 31.1401189,19.8721507 C31.1967926,19.8482905 31.2500029,19.8116056 31.2956567,19.7716398 C31.4949591,19.5971624 31.6555345,19.3937546 31.7871433,19.1694692 C31.8387793,19.0808883 31.8620785,18.9860442 31.8715241,18.8840421 C31.8941936,18.6355982 31.9272532,18.3880491 31.9546455,18.1399035 C31.970703,17.9958478 31.9867606,17.8517922 31.9974656,17.7074382 C32.0135231,17.4891178 31.9540158,17.2931663 31.7978483,17.125847 M19.2421123,28.9586938 C19.2229062,28.944676 19.1933099,28.9396057 19.1678068,28.9378162 C18.9574845,28.9235001 18.7484217,28.9181316 18.5437667,28.9852383 C18.4704058,29.0093967 18.3907478,29.0222215 18.312979,29.0284848 C18.1555521,29.0410114 18.0318146,28.9822557 17.9675845,28.8420773 C17.8942235,28.6813196 17.7660781,28.591844 17.5910194,28.5533695 C17.5655163,28.5477027 17.5406428,28.5387551 17.5151397,28.5327901 C17.1001625,28.4370512 16.7443778,28.5289128 16.4575461,28.8355158 C16.4225973,28.8727973 16.3901674,28.9121665 16.3564781,28.9509393 C16.2283326,29.0988722 16.0205291,29.0803806 15.9065521,28.9792732 C15.8451556,28.9252896 15.7928899,28.861762 15.7403093,28.7997256 C15.7037863,28.7570755 15.6738752,28.7099517 15.6401859,28.6652139 C15.5583239,28.5566502 15.4468657,28.4987894 15.3058112,28.4925261 C15.2060026,28.4880523 15.106194,28.485368 15.0060705,28.4797013 C14.8621824,28.4719467 14.7349815,28.514895 14.6244678,28.5981073 C14.5548851,28.6505996 14.4887659,28.709057 14.4295734,28.7719881 C14.3706957,28.8352175 14.31843,28.9053067 14.2696277,28.9762907 C14.1909143,29.0911177 14.0800858,29.1427153 13.9387164,29.1486803 C13.7095029,29.1579261 13.4853271,29.1385398 13.27469,29.0457834 C13.1651209,28.9974666 13.0574409,28.9452725 12.9513352,28.8900959 C12.8480632,28.8367088 12.762423,28.7651283 12.7088979,28.6616349 C12.6708006,28.5876684 12.603107,28.5342814 12.5272273,28.5017719 C12.3981373,28.446297 12.2655839,28.3949977 12.1298819,28.3568215 C11.9560827,28.3079081 11.7778755,28.2959781 11.6034465,28.3651725 C11.5697572,28.3785938 11.5329193,28.3857519 11.497026,28.3923134 C11.3972173,28.4108051 11.324801,28.4588236 11.2778878,28.5468079 C11.2426242,28.6136164 11.195711,28.6732668 11.1220352,28.7108465 C11.1015697,28.7212853 11.0842527,28.745742 11.0757517,28.7672161 C10.9882224,28.9852383 11.0112067,29.1877513 11.1733563,29.3699832 C11.2813512,29.4913718 11.4176828,29.5745841 11.5747948,29.6261816 C11.6642133,29.6554103 11.7564654,29.6759897 11.8474581,29.7016394 C12.0530576,29.7595003 12.2611759,29.7660618 12.4727576,29.7332541 C12.5395066,29.7228153 12.6094041,29.717745 12.6767828,29.7228153 C12.9053666,29.7404121 13.1210414,29.8078171 13.3231775,29.9068367 C13.4676953,29.9778207 13.6062309,30.0604365 13.7447666,30.141561 C13.9601265,30.267125 14.2013044,30.3142488 14.4453161,30.3539163 C14.4859322,30.3604779 14.5290671,30.3533198 14.5709427,30.3518286 C14.7831541,30.3446705 14.9896981,30.3035118 15.1915193,30.2459491 C15.4166397,30.181825 15.6458532,30.1639299 15.878845,30.1672106 C16.0066756,30.1690002 16.1291537,30.1937551 16.246909,30.2426684 C16.429839,30.3187226 16.6143432,30.3920926 16.7975881,30.4684451 C16.875357,30.5012528 16.9556447,30.5206392 17.0390809,30.5352535 C17.1612441,30.5561312 17.2802588,30.5412186 17.4005329,30.5239199 C17.6410812,30.4899192 17.8542371,30.4007419 18.0355929,30.2453526 C18.0825061,30.2050886 18.1297341,30.1654211 18.1775919,30.1263501 C18.2367844,30.0777351 18.3060522,30.0583487 18.3831914,30.068191 C18.4351422,30.0750508 18.4870931,30.0842966 18.5387291,30.0932442 C18.7056015,30.1212798 18.8623987,30.0998057 19.0103799,30.0165934 C19.0821666,29.9760312 19.1624543,29.9491885 19.2367597,29.911907 C19.3154732,29.8719412 19.393242,29.8295895 19.4678624,29.7833604 C19.5279994,29.7460789 19.5613739,29.6897093 19.565467,29.6202166 C19.5673561,29.5853211 19.5689304,29.5504257 19.5711344,29.5107582 C19.5679858,29.4755644 19.563263,29.4358969 19.5616888,29.3959312 C19.5531877,29.1859618 19.3985946,29.0711348 19.2421123,28.9586938 M11.4724674,27.2076568 C11.5385866,27.2252537 11.6034465,27.2395697 11.6736589,27.239868 C11.7583545,27.2404645 11.8383274,27.2643247 11.9132626,27.3060799 C12.0448714,27.3791516 12.1799436,27.4471531 12.3134416,27.5166458 C12.3364259,27.5285759 12.3603548,27.5434885 12.3852283,27.5473657 C12.5354135,27.5721206 12.684969,27.6043319 12.8392473,27.589121 C12.9494461,27.5780857 13.0596449,27.5664539 13.1698437,27.5595941 C13.2611513,27.5539273 13.3471063,27.5321549 13.4267643,27.4915926 C13.5010698,27.4540129 13.5772644,27.4176261 13.6446431,27.3705023 C13.8552802,27.2216746 13.9667384,27.0170738 13.9856296,26.7713142 C13.9916119,26.6934705 13.9749246,26.6114512 13.9535146,26.5348004 C13.9223441,26.42057 13.8518168,26.3275154 13.7431923,26.2639877 C13.6805364,26.2273027 13.6172508,26.1912142 13.5542801,26.1548275 C13.429598,26.0829488 13.2957852,26.045369 13.1484336,26.0504393 C13.0908154,26.0525271 13.0322526,26.0483516 12.9752641,26.0388075 C12.8483781,26.0170351 12.8068174,25.9657358 12.8134293,25.8407682 C12.8165778,25.7861881 12.8263383,25.731608 12.8367285,25.6776244 C12.857194,25.5747275 12.8852159,25.4730236 12.9006438,25.3692319 C12.90883,25.3113711 12.9135528,25.2457556 12.8930873,25.1926668 C12.8219304,25.0050663 12.7098424,24.844905 12.5083361,24.7581137 C12.3874322,24.7059196 12.260861,24.6737084 12.1298819,24.6546203 C12.0102375,24.6373217 11.8909079,24.6182336 11.7712635,24.6003385 C11.7454455,24.5964612 11.7193127,24.5919874 11.6931798,24.5904962 C11.4592435,24.5761801 11.23003,24.6024262 11.0071136,24.6707259 C10.8304807,24.7247095 10.7398028,24.841326 10.7375988,25.0163999 C10.7363394,25.1613503 10.7841972,25.2913882 10.8780236,25.4056187 C10.9299744,25.4685498 10.9841293,25.5296915 11.036395,25.5926226 C11.1028291,25.6722559 11.1034588,25.7566612 11.0552862,25.8446455 C11.0184483,25.9126469 10.969646,25.9705078 10.907305,26.0179299 C10.8660591,26.0492463 10.8210351,26.0757907 10.7804189,26.1074054 C10.5209795,26.3108133 10.0424018,26.2320747 9.8352281,26.0235967 C9.71589854,25.9039976 9.65796546,25.7653105 9.67780125,25.6009737 C9.68567259,25.5365513 9.69574791,25.4715323 9.71526884,25.4097942 C9.75840379,25.2764756 9.81035466,25.145543 9.85506388,25.0125226 C9.93598128,24.7721316 9.84372915,24.6486553 9.69826674,24.5761801 C9.58838279,24.5216 9.50085346,24.44823 9.42339945,24.3563684 C9.28423411,24.1917333 9.09784072,24.1449078 8.88436991,24.1899438 C8.83304875,24.2003826 8.78298701,24.2164882 8.73355498,24.2337869 C8.55849632,24.2964198 8.44735296,24.4166153 8.39319813,24.5842329 C8.36989895,24.6558133 8.35447112,24.7294815 8.33243136,24.801062 C8.31763324,24.8487823 8.30220541,24.8973974 8.27827652,24.9412404 C8.22286227,25.0408566 8.13407353,25.066208 8.02513415,25.0172947 C8.00152012,25.0065576 7.97822094,24.9943293 7.95775545,24.9785219 C7.82362777,24.8741337 7.68887039,24.7697456 7.55631698,24.6632696 C7.47476987,24.5973559 7.45461923,24.5144419 7.49617992,24.4198961 C7.5160157,24.3739653 7.5371109,24.3283327 7.55883581,24.2827002 C7.59535884,24.2051547 7.63345614,24.1285039 7.66871975,24.0503619 C7.71909634,23.9400087 7.71909634,23.8287607 7.67816536,23.7145302 C7.63786409,23.6011945 7.60260047,23.4860693 7.56765171,23.3712423 C7.53207324,23.253731 7.45839747,23.169624 7.34095704,23.1168334 C7.11709606,23.016919 6.89543905,22.9122326 6.67126321,22.8126164 C6.46944199,22.7225443 6.43543779,22.6429111 6.52485624,22.4442753 C6.54122863,22.4075903 6.55917529,22.3712036 6.57932593,22.3363081 C6.62025691,22.2662189 6.66339187,22.197621 6.70495256,22.1281283 C6.76981242,22.0195646 6.83782082,21.9124921 6.89827273,21.8018407 C6.97257821,21.6670308 7.01319434,21.5235716 7.00532299,21.3693754 C7.00091504,21.2897421 7.0059527,21.2092141 7.00028533,21.1295808 C6.9889506,20.9589807 6.94770476,20.7940474 6.86899134,20.6392547 C6.82018901,20.542621 6.75029149,20.4626895 6.64261152,20.4188465 C6.45149532,20.3418975 6.25817515,20.3234059 6.05698363,20.3857405 C5.67380667,20.5044448 5.34982221,20.7150106 5.05071119,20.964051 C5.0308754,20.9804549 5.01418816,21.0001395 4.99655635,21.0186311 C4.94397578,21.074106 4.92256573,21.1385284 4.93547473,21.2121966 C4.94051239,21.2417235 4.94460549,21.2715487 4.95216198,21.3007774 C5.0138733,21.539379 4.93484502,21.7362252 4.74341397,21.8913162 C4.64329049,21.9724408 4.5718187,22.0648989 4.53340655,22.1830066 C4.52112725,22.2208846 4.50003206,22.2563766 4.48523393,22.2936581 C4.47641803,22.3169217 4.46476844,22.3419749 4.46665756,22.3655368 C4.47326949,22.4597844 4.4827151,22.5543303 4.49530925,22.6482796 C4.50412515,22.7106143 4.54127789,22.7556503 4.59543273,22.7941248 C4.69618592,22.8663018 4.79095688,22.945935 4.88919124,23.0210945 C4.92602912,23.0491302 4.96570069,23.0732886 5.00379799,23.099833 C5.09258673,23.1621677 5.18106062,23.2245023 5.26921966,23.2874335 C5.35360045,23.3470839 5.43168417,23.4168748 5.52267689,23.4648934 C5.6892345,23.5528777 5.7525201,23.6909683 5.76511425,23.8588842 C5.7736153,23.9760972 5.72575753,24.0718361 5.63098657,24.1484868 C5.50000743,24.2546645 5.34824794,24.2818054 5.18704284,24.2424362 C5.05952709,24.2111197 4.93736385,24.2155935 4.81299664,24.2469099 C4.78749349,24.2534715 4.76104578,24.257647 4.7371169,24.2668928 C4.67981352,24.28956 4.62471412,24.2847879 4.5677256,24.2671911 C4.45060002,24.2311026 4.35205081,24.1657854 4.25161248,24.101363 C4.14015427,24.030379 4.09450048,23.9310611 4.09387078,23.8090761 C4.09324107,23.7243726 4.09292622,23.6390725 4.09953814,23.5546672 C4.10583522,23.4795077 4.08127663,23.4180678 4.0324743,23.3614 C3.93927761,23.253731 3.82026291,23.1833436 3.68204213,23.1406935 C3.52587469,23.0923767 3.37946772,23.1102718 3.24911828,23.2078002 C3.19559315,23.247766 3.14521656,23.2922055 3.09515482,23.3363468 C2.92922692,23.4830868 2.88640682,23.6650204 2.9273378,23.8702178 C2.9402468,23.9340437 2.95630434,23.9972731 2.96574995,24.0613972 C2.98180749,24.1663819 3.01675625,24.2645068 3.06083577,24.3614387 C3.18457327,24.6334444 3.36152106,24.8765197 3.52681925,25.1255601 C3.55704521,25.1711926 3.59892075,25.2147374 3.6455191,25.2442644 C3.78279532,25.3304592 3.87504745,25.4476722 3.94085188,25.5878506 C3.9896542,25.6916423 4.06836763,25.7700825 4.17415847,25.8240661 C4.32339913,25.9010151 4.4568971,25.997947 4.5718187,26.1169495 C4.67509072,26.2234254 4.80323618,26.2893391 4.94838373,26.3269189 C5.11179281,26.3695689 5.27866527,26.3931308 5.44837142,26.3853762 C5.54471665,26.3806042 5.61020622,26.4160962 5.65302633,26.4954312 C5.70308807,26.5890823 5.7525201,26.6827334 5.80415611,26.7754898 C5.92065198,26.9869504 6.07461544,27.1685858 6.28556742,27.3022027 C6.40395241,27.3773621 6.51792946,27.4563989 6.62057176,27.551243 C6.755644,27.6756141 6.91433027,27.7176676 7.10072367,27.6633857 C7.25027918,27.6201392 7.40266837,27.6290868 7.55222388,27.672035 C7.63282643,27.6952987 7.71405868,27.7176676 7.79529094,27.738247 C7.88817278,27.7618089 7.95460691,27.8128099 7.9914448,27.8975135 C8.00750234,27.9344967 8.025449,27.9705852 8.04213625,28.0072702 C8.07897413,28.089886 8.11297833,28.1742913 8.1526499,28.2554158 C8.24962484,28.4543498 8.40799625,28.5822999 8.63972858,28.6204762 C8.66554658,28.6249499 8.69199429,28.6282307 8.71749744,28.633301 C8.81037929,28.6514944 8.90294628,28.669986 8.99551327,28.6893724 C9.07265242,28.705478 9.14947673,28.7230748 9.22661589,28.7397769 C9.32705422,28.7612511 9.42560343,28.7502157 9.52352293,28.7248643 C9.58114116,28.71025 9.63498114,28.6854951 9.66835563,28.6389678 C9.75934836,28.511316 9.82420822,28.3771026 9.76123748,28.247363 C9.68000522,28.1781686 9.62018302,28.1310448 9.56476877,28.0794472 C9.49707522,28.016516 9.43378962,27.9497076 9.36767035,27.8849869 C9.2571567,27.7767215 9.2618795,27.634157 9.37711596,27.5297689 C9.43315992,27.479066 9.49644551,27.4516269 9.57389952,27.4459601 C9.76029292,27.4322405 9.94196351,27.4495391 10.1201707,27.503821 C10.3015264,27.5595941 10.4715474,27.5408042 10.6305486,27.436416 C10.7215413,27.3770639 10.8156825,27.3218873 10.9082495,27.2652194 C10.9897966,27.2157096 11.0789002,27.1885687 11.1752455,27.1799194 C11.2766284,27.1706736 11.3758073,27.1817089 11.4724674,27.2076568 M27.7346613,15.933734 C27.8417115,15.7735728 27.9556886,15.617587 28.0658874,15.4595135 C28.1304324,15.3670554 28.1760862,15.265948 28.1984408,15.157086 C28.2488174,14.9110282 28.3363467,14.6757074 28.4245057,14.4406849 C28.4729932,14.3118401 28.4944033,14.1806092 28.4909399,14.0443081 C28.4859022,13.8236017 28.4415078,13.6091585 28.3964838,13.3929259 C28.3432735,13.1358327 28.2289816,12.9219861 27.9944156,12.7746496 C27.9896928,12.7719654 27.9862294,12.7683864 27.9818214,12.7654038 C27.8215609,12.6437171 27.7242711,12.4930998 27.7226968,12.2914815 C27.7217523,12.1396713 27.6738945,11.9950191 27.614702,11.856332 C27.5485827,11.7009427 27.4242155,11.6001336 27.2419152,11.5979955 C26.8121399,11.5929755 26.5700174,11.972352 26.6317287,12.2452525 C26.6839944,12.476696 26.7570405,12.6994902 26.8760552,12.906477 C26.9736599,13.0758841 26.9764935,13.2494667 26.9295803,13.4293126 C26.9106891,13.5029808 26.8738512,13.5688945 26.8127696,13.6210886 C26.7520028,13.6732827 26.684939,13.6881953 26.6103187,13.648826 C26.4349452,13.557561 26.3093185,13.4316986 26.295465,13.2312733 C26.2920016,13.1814653 26.2945204,13.1310607 26.2879085,13.0818491 C26.2765738,12.9929701 26.2715361,12.9011085 26.243829,12.8164049 C26.2032128,12.6926304 26.1204063,12.596295 25.976833,12.5661716 C25.7617879,12.5214338 25.5476874,12.5288901 25.3367354,12.5858562 C25.2699865,12.6037513 25.2224435,12.6475943 25.1852908,12.708736 C25.0467552,12.9357057 24.954503,13.1781845 24.8962551,13.4334882 C24.8864946,13.4773312 24.877049,13.5223672 24.8776787,13.5665085 C24.8801976,13.8233034 24.9126275,14.073835 25.0458106,14.3049803 C25.1015397,14.4010174 25.1506569,14.5009318 25.1944216,14.6023374 C25.2662082,14.7684638 25.2725053,14.9405551 25.2378714,15.116822 C25.2051266,15.2850361 25.1298766,15.4398288 25.0766663,15.6011831 C25.0067688,15.8156263 24.9057007,16.008297 24.7240301,16.1583177 C24.6594851,16.2120031 24.6150907,16.2797063 24.5946253,16.359936 C24.5558983,16.5111498 24.526302,16.6626617 24.5587319,16.8189457 C24.5710112,16.8777014 24.5845499,16.9367553 24.5892727,16.9961074 C24.608164,17.2385862 24.7082874,17.4595909 24.7825929,17.6901396 C24.8499716,17.7086312 24.9003482,17.7217543 24.9504099,17.7366669 C25.0543117,17.7676851 25.1588431,17.7536673 25.2633745,17.741439 C25.2781727,17.7396494 25.2964342,17.7327896 25.3052501,17.7226491 C25.376407,17.6409281 25.4343401,17.5538385 25.430247,17.4413975 C25.425839,17.3370093 25.4157637,17.2320247 25.4223757,17.1279347 C25.4274133,17.0494945 25.4497679,16.9710542 25.473382,16.8947017 C25.5045525,16.7938926 25.5775985,16.7232069 25.6761477,16.6763813 C25.718653,16.6561002 25.7608434,16.6346261 25.8061823,16.6220995 C25.9648686,16.5779582 26.1175726,16.5654316 26.2353279,16.7094873 C26.2504409,16.7282772 26.2762589,16.7393125 26.2982987,16.7524356 C26.4217213,16.8267003 26.4393531,16.8708416 26.3936993,17.0002829 C26.3820497,17.0333889 26.3659922,17.0650036 26.3540278,17.0981096 C26.3184493,17.1971292 26.2806669,17.2958506 26.250126,17.3963615 C26.2224189,17.4879248 26.2098248,17.5815759 26.2334388,17.6773148 C26.2620905,17.7942295 26.3323029,17.8723715 26.4554107,17.9078635 C26.5646649,17.9394782 26.6726597,17.9424607 26.7815991,17.906074 C26.8763701,17.8744593 26.9689371,17.8359848 27.0451316,17.7736502 C27.1688692,17.6725428 27.289773,17.5681546 27.4056391,17.4592926 C27.522135,17.3501324 27.5806978,17.2132348 27.5983296,17.0587403 C27.6090346,16.9644927 27.6232031,16.8705433 27.6436685,16.777787 C27.6738945,16.6376086 27.6789322,16.5007109 27.6209991,16.3656028 C27.5898286,16.2931276 27.5895137,16.2179681 27.6219436,16.1463877 C27.6550033,16.0736142 27.6896372,16.0005425 27.7346613,15.933734 M23.5055463,10.349265 C23.3541017,10.3940028 23.2303642,10.4727413 23.1337041,10.5905508 C23.1078861,10.6221655 23.0858463,10.6564645 23.0609729,10.6886757 C23.0190973,10.743554 22.9633682,10.7832215 22.8941004,10.7945551 C22.7697332,10.8148363 22.6469402,10.8345209 22.5178502,10.81931 C22.3295677,10.7963446 22.1393961,10.7990289 21.9504838,10.8249768 C21.8638991,10.8369069 21.7902233,10.8700129 21.7209555,10.9183297 C21.560695,11.0298759 21.4451436,11.1781071 21.3393528,11.3340929 C21.3198319,11.362725 21.3091268,11.3976205 21.2987367,11.4310247 C21.2622136,11.5518168 21.2776415,11.6708193 21.3362043,11.780576 C21.3856363,11.8739288 21.448607,11.9607201 21.5065401,12.0498975 C21.618628,12.2225853 21.607923,12.3308508 21.461516,12.4805733 C21.4470328,12.4951876 21.4334941,12.5115915 21.4161771,12.5223285 C21.2134113,12.6469978 21.0169426,12.7830007 20.7521506,12.7579475 C20.6432113,12.7475087 20.5434026,12.7812112 20.4798022,12.8772483 C20.4366672,12.9428637 20.3705479,12.9837242 20.3031693,13.0242865 C20.1677822,13.105411 20.0594725,13.2139747 19.970054,13.3395388 C19.8746534,13.4734539 19.8422234,13.6222816 19.8595404,13.7818464 C19.8752831,13.9273933 19.9168438,14.0672735 19.989575,14.1955218 C20.0834014,14.3604551 20.2011566,14.5045108 20.3929026,14.5820563 C20.454299,14.6071095 20.5109727,14.64797 20.5613493,14.6912165 C20.6384884,14.7574284 20.6586391,14.842132 20.6224309,14.9369761 C20.5849633,15.0353992 20.551274,15.1356119 20.5093984,15.2322455 C20.4398158,15.391512 20.3170228,15.4959002 20.1325185,15.5152866 C19.8837841,15.5409363 19.636624,15.5463048 19.4193749,15.3962841 C19.4023728,15.3846522 19.3831667,15.3760029 19.3642755,15.3673536 C19.2436865,15.3124753 19.1429333,15.2349298 19.0550892,15.1388927 C18.861769,14.9280285 18.6051632,14.8540621 18.3205355,14.8477988 C18.2468597,14.8466058 18.1731839,14.8522726 18.0995082,14.84929 C18.0340186,14.8466058 17.9732518,14.8573428 17.9162633,14.8853785 C17.7761534,14.954573 17.632895,15.0183989 17.516714,15.1245766 C17.4830246,15.1552965 17.4427233,15.1833322 17.4002181,15.2000343 C17.1914701,15.2814571 16.9814627,15.3321599 16.7572868,15.2405966 C16.6458286,15.1952623 16.5249248,15.1779637 16.4021318,15.1770689 C16.350181,15.1767707 16.2969707,15.1675248 16.246909,15.1544018 C16.1338765,15.1248748 16.0463472,15.146349 15.9622812,15.2307542 C15.8952174,15.2984574 15.8080029,15.3503533 15.7236221,15.4001613 C15.6124787,15.4663733 15.4887412,15.4833736 15.3583918,15.4630925 C15.2069472,15.4398288 15.0599105,15.4007578 14.9191709,15.3434935 C14.7645777,15.2799658 14.6096697,15.2161399 14.4585399,15.1454542 C14.2875744,15.0652244 14.1046443,15.0523996 13.9201401,15.0455398 C13.8455197,15.0431538 13.7712143,15.0583646 13.7079287,15.0968391 C13.6238627,15.1481385 13.5391671,15.199736 13.4636022,15.2605794 C13.3178249,15.378389 13.1591387,15.4747243 12.986284,15.5516733 C12.9340183,15.574937 12.8767149,15.5898496 12.826968,15.6169905 C12.7139355,15.6793251 12.592402,15.702887 12.4636268,15.7025888 C12.426789,15.7022905 12.3899511,15.7073608 12.3531132,15.7103433 L12.3531132,15.7151154 C12.2951801,15.7151154 12.237247,15.7163084 12.1796288,15.7151154 C11.9170408,15.7103433 11.7171087,15.5982006 11.5647195,15.3992666 C11.4768753,15.2844396 11.4592435,15.1618581 11.5061567,15.030329 C11.5263074,14.9736611 11.5555887,14.920274 11.5798325,14.8650974 C11.6084842,14.8003767 11.6380804,14.7362526 11.6632687,14.6709354 C11.6997917,14.5754948 11.7136453,14.4782646 11.6916055,14.3765607 C11.6768074,14.308261 11.6623242,14.2381718 11.6629539,14.1689774 C11.6645281,14.0004651 11.5810919,13.8611814 11.5026933,13.7201083 C11.4520019,13.6288432 11.3651023,13.5864914 11.2561629,13.5829124 C11.1746158,13.5802281 11.1012548,13.6020005 11.0294682,13.6374925 C10.9690163,13.6676159 10.9060456,13.6929673 10.8424451,13.7171257 C10.7404325,13.756495 10.6359011,13.7913905 10.5342033,13.8319527 C10.4454146,13.8671464 10.3556813,13.8927961 10.2583915,13.8841468 C10.1692879,13.8763923 10.0798694,13.8680412 9.99108068,13.8567076 C9.89882855,13.8444793 9.82420822,13.799145 9.75745923,13.7394946 C9.64883471,13.641668 9.60003238,13.5286305 9.65355751,13.3884521 C9.69448849,13.2804849 9.72943725,13.1698334 9.77981385,13.0660418 C9.87993733,12.8578619 9.9243317,12.638945 9.93661099,12.4128701 C9.9460566,12.2395857 9.91834948,12.0761436 9.80027934,11.9323862 C9.75305128,11.8748236 9.71715796,11.8035414 9.69480335,11.7334522 C9.65953973,11.6236955 9.59625414,11.5369042 9.50840995,11.4608499 C9.39947057,11.3666023 9.28895692,11.275039 9.15955205,11.2049498 C9.08241289,11.162598 9.01377478,11.1062284 8.93915445,11.0597011 C8.84847659,11.002735 8.75213135,10.9961734 8.653897,11.042999 C8.6117066,11.0632801 8.57014591,11.0847542 8.52827037,11.1059301 C8.46687389,11.1369483 8.40169918,11.1593172 8.33180165,11.1533522 C8.14005575,11.1369483 7.95681089,11.0960878 7.80347714,10.976787 C7.7710472,10.9511374 7.73861727,10.9254877 7.70398337,10.9028206 C7.61708374,10.846451 7.52325734,10.8228891 7.41904076,10.853609 C7.3589037,10.8715041 7.29845179,10.8885045 7.23862959,10.9078909 C7.01823199,10.9800678 6.88378946,11.1309833 6.80161264,11.3320051 C6.74021617,11.4808328 6.75595886,11.6257832 6.81357709,11.7701372 C6.85450807,11.8733323 6.93448091,11.9362635 7.05097678,11.9401408 C7.22131263,11.9458076 7.38472171,11.9848786 7.54813078,12.0224583 C7.67564653,12.051687 7.80064345,12.0910562 7.92501067,12.1316185 C8.03646888,12.1683035 8.11329318,12.2452525 8.14477855,12.3517284 C8.1702817,12.4373267 8.18948778,12.5268023 8.19421058,12.6156814 C8.20302649,12.7722636 8.23608613,12.9228809 8.30126084,13.0657435 C8.36580585,13.2071149 8.38123369,13.3520654 8.37273264,13.5047704 C8.36486129,13.6386855 8.30535394,13.7320383 8.18917293,13.7994433 C8.13061014,13.833444 8.07110279,13.8650587 8.01285485,13.8993577 C7.87589349,13.9804822 7.8085148,14.0970987 7.81670099,14.2509967 C7.82110894,14.3309282 7.82898029,14.4108597 7.82835058,14.490493 C7.82709116,14.691813 7.90486003,14.8597289 8.05567495,14.999609 C8.08590091,15.0276447 8.11392289,15.0574699 8.14509341,15.0843126 C8.30724307,15.2250875 8.48387599,15.3378267 8.71183008,15.3587043 C8.76913345,15.3637746 8.8245477,15.3816697 8.88153622,15.3930033 C8.97567748,15.4117932 9.04274132,15.4627942 9.08493172,15.544217 C9.14412421,15.6569563 9.18788888,15.7720815 9.189778,15.9015228 C9.19103742,15.9853316 9.19953847,16.0730177 9.22756045,16.1517562 C9.3040699,16.3670941 9.43945699,16.4234637 9.62962863,16.4270427 C9.6863023,16.4279375 9.74392052,16.4115336 9.79964963,16.3975158 C9.91677521,16.3676906 10.0335859,16.3369706 10.1485075,16.3011804 C10.2527241,16.2689692 10.3374198,16.2910398 10.3997608,16.3736556 C10.5087002,16.5174131 10.5955998,16.6739953 10.6044157,16.8532447 C10.6211029,17.202796 10.6066197,17.5517507 10.5279063,17.8959334 C10.4932723,18.0474454 10.4728069,18.2016417 10.4806782,18.3570309 C10.489809,18.530017 10.537037,18.6958451 10.6601448,18.8267777 C10.7687693,18.9419029 10.8887286,19.0489754 11.0146701,19.1465038 C11.0993657,19.2115227 11.2016932,19.2574535 11.3002424,19.3045773 C11.3795855,19.3430518 11.4655406,19.369298 11.5474026,19.4032987 C11.6560271,19.448633 11.768115,19.4715984 11.8861851,19.4560893 C12.0067741,19.4399837 12.1229551,19.4092637 12.2312648,19.3537889 C12.3764124,19.2792259 12.5064469,19.1876625 12.6188497,19.0728355 C12.6833947,19.0072201 12.7479397,18.9413064 12.8153184,18.8777788 C13.048625,18.6582654 13.2136084,18.4005757 13.2901178,18.096657 C13.339235,17.9007055 13.4544714,17.7420355 13.582302,17.5884357 C13.6106389,17.5541367 13.6509402,17.5263993 13.6906117,17.5028374 C13.8631516,17.4002388 14.0312834,17.4106776 14.187136,17.5344521 C14.2312155,17.5696458 14.2734059,17.6090151 14.3067804,17.6531564 C14.423906,17.8073526 14.5325305,17.9660227 14.6080954,18.1437808 C14.714516,18.3934177 14.8149543,18.646037 14.9569533,18.8807613 C14.9752148,18.9108847 14.9909575,18.9427977 15.0041814,18.9753072 C15.127604,19.2825066 15.3445382,19.524389 15.5970509,19.7412181 C15.6833208,19.8151846 15.7758878,19.8825895 15.8886054,19.9165902 C16.1023911,19.9804162 16.3218441,20.0042763 16.5441309,19.9825039 C16.8347408,19.95417 17.0922912,19.841729 17.3224492,19.6753044 C17.3967547,19.6216191 17.4581512,19.5506351 17.5208071,19.4838267 C17.5592192,19.4429662 17.5840926,19.3907721 17.6225048,19.3502098 C17.7525394,19.2133122 17.7956743,19.0450981 17.8233815,18.8706207 C17.8331419,18.8112686 17.8359756,18.75132 17.8460509,18.6922661 C17.8611639,18.598615 17.8750175,18.5043674 17.8983166,18.4125058 C17.9386179,18.2523445 17.9849014,18.0936745 18.0292958,17.9347062 C18.0535395,17.8476166 18.0787278,17.7611236 18.1039161,17.6746305 C18.1432728,17.5407154 18.2292279,17.4339412 18.3284068,17.3355181 C18.373116,17.2910785 18.4297897,17.2642359 18.4921307,17.249025 C18.5736778,17.2293404 18.6555398,17.2093575 18.7380315,17.1929537 C18.8003725,17.1804271 18.8636581,17.1798306 18.9247397,17.2019012 C19.0997984,17.2660254 19.240538,17.362659 19.292174,17.5448909 C19.2975265,17.5642773 19.3044533,17.5833654 19.3107504,17.6021553 C19.3743508,17.7870715 19.4373216,17.9722859 19.5028111,18.1569039 C19.5179241,18.1986592 19.5393342,18.2395197 19.5642076,18.2770994 C19.6898342,18.4691736 19.8784316,18.5965272 20.0739558,18.7164245 C20.1662079,18.7727941 20.2653868,18.7966543 20.3749559,18.7787591 C20.4634298,18.7641448 20.5515888,18.7510217 20.6400627,18.7358109 C20.7272772,18.7208983 20.7962302,18.679143 20.8415691,18.6051765 C20.8812407,18.5404559 20.9253202,18.477823 20.9612135,18.4113128 C21.0607073,18.2266948 21.1891676,18.064744 21.35604,17.9296359 C21.4079909,17.8878806 21.4545893,17.8395638 21.4986688,17.7903523 C21.5663623,17.7157893 21.6016259,17.6281032 21.5984774,17.5287853 C21.5953289,17.4288709 21.5893466,17.3292548 21.5877724,17.2293404 C21.5858832,17.0799162 21.5780119,16.9295972 21.5877724,16.7807695 C21.5987922,16.6212047 21.6683749,16.4840088 21.8018729,16.3781294 C21.8840497,16.3131105 21.9807098,16.2743377 22.0694985,16.2215471 C22.1488417,16.1744233 22.2313333,16.1535457 22.3204369,16.1398261 C22.4397665,16.1213345 22.5584663,16.0977726 22.6784256,16.0822635 C22.8081453,16.0655614 22.9189738,16.0112795 23.0213013,15.9385061 C23.2382355,15.7846081 23.4217952,15.5984989 23.5867785,15.3968806 C23.6676959,15.2984574 23.730037,15.18542 23.7404272,15.0571716 C23.7520767,14.9128177 23.7555401,14.7678673 23.7630966,14.6232151 C23.7747462,14.3926663 23.6686405,14.2190837 23.4750055,14.0884494 C23.4362785,14.0625015 23.3953475,14.0392378 23.3569353,14.0129916 C23.2971131,13.9721311 23.2369761,13.9312706 23.1796727,13.8877258 C23.0578243,13.7946712 23.0121705,13.6732827 23.0373588,13.528034 C23.0578243,13.409628 23.0893097,13.2942045 23.1374823,13.18236 C23.2429583,12.9377935 23.3449709,12.6914374 23.4482429,12.445976 C23.47595,12.3797641 23.4938967,12.3120609 23.4740609,12.241077 C23.4529657,12.1671105 23.478154,12.1029863 23.5216038,12.0436342 C23.5666279,11.9821943 23.6144857,11.9225439 23.6598246,11.861104 C23.7775799,11.7009427 23.9384701,11.6448714 24.1396617,11.6875214 C24.268122,11.7149606 24.3981565,11.7346452 24.5278763,11.7558211 C24.5965144,11.7668564 24.6635782,11.7588036 24.7303272,11.7382242 C24.877049,11.6931882 25.0111767,11.6245902 25.144045,11.553308 C25.2252772,11.5097632 25.2800618,11.4414635 25.3087135,11.3585495 C25.3562564,11.2204589 25.3899457,11.0793857 25.3887205,10.9326458 C25.3874269,10.8032044 25.3408285,10.6871844 25.2649488,10.5827963 C25.1856057,10.4736361 25.0722583,10.4324773 24.9337227,10.4611095 C24.8978294,10.4685658 24.8625658,10.4790046 24.827617,10.4900399 C24.7426065,10.5171808 24.6547623,10.5380585 24.5744746,10.5744452 C24.3975268,10.654675 24.2366366,10.61799 24.07858,10.5311987 C24.042057,10.5109175 24.0083677,10.4870574 23.9734189,10.4646885 C23.9340622,10.4399336 23.8959649,10.4121962 23.8550339,10.3901255 C23.7448351,10.3301825 23.6305432,10.31258 23.5055463,10.349265 M24.4551451,4.49607097 C24.5395259,4.5467738 24.6229621,4.60224866 24.7142697,4.63863539 C24.9563922,4.73497077 25.1305063,4.90616737 25.2992679,5.08631153 C25.3789258,5.17190984 25.4047438,5.26943822 25.3757773,5.37830017 C25.3260304,5.56351461 25.2555032,5.74007975 25.1305063,5.89338124 C25.0952427,5.93692602 25.0602939,5.98106731 25.0297531,6.02759461 C24.9491505,6.1498779 24.9456871,6.27365245 25.0388838,6.39086545 C25.1308211,6.50628895 25.2287406,6.61753692 25.3250859,6.72997789 C25.3446068,6.75294329 25.3688505,6.77292617 25.3924645,6.79290905 C25.5520954,6.92771892 25.6802408,6.93935074 25.8653748,6.83138355 C25.9236228,6.79768108 25.976833,6.75622406 26.0316176,6.71745131 C26.0568059,6.69925794 26.0785308,6.67688905 26.1043488,6.66018694 C26.1751909,6.61485265 26.2441438,6.62171244 26.3036512,6.67987157 C26.3918102,6.76606637 26.4214065,6.86896329 26.383624,6.98349203 C26.3521386,7.07863439 26.3086888,7.16989948 26.2746846,7.26444534 C26.2384765,7.36614925 26.1773948,7.45115104 26.0986814,7.52720529 C26.0133561,7.60892631 25.9289753,7.6915421 25.8480579,7.77684215 C25.7589543,7.8707915 25.6578862,7.94893351 25.5461132,8.01663669 C25.4617324,8.06733952 25.3789258,8.12162137 25.2998976,8.17948224 C25.197885,8.25434348 25.1194864,8.3509771 25.0832782,8.46819011 C25.021252,8.66831715 25.0108619,8.87232147 25.0801297,9.07334326 C25.131136,9.22097797 25.2089048,9.35608609 25.3021015,9.48493092 C25.4252093,9.65523277 25.5927115,9.74053282 25.8061823,9.75276115 C25.9059909,9.75842793 26.0061144,9.76946326 26.105923,9.769165 C26.400941,9.767972 26.6965886,9.77721781 26.9761787,9.65911004 C27.119752,9.59826665 27.2734006,9.59498588 27.4267343,9.61616177 C27.5152082,9.6283901 27.6036821,9.64479395 27.6886926,9.66925061 C27.7674061,9.69191776 27.8442304,9.69549678 27.9226289,9.67909292 C27.9739501,9.66835585 28.0262158,9.65791704 28.0740736,9.63853066 C28.2393718,9.57202048 28.4122264,9.56575719 28.5869702,9.57828377 C28.6845749,9.58514357 28.7664369,9.62272331 28.8357047,9.69281251 C29.0224129,9.88100948 28.9928167,10.1064879 28.8942675,10.2579999 C28.8420017,10.3385279 28.7954034,10.422635 28.7497496,10.5070403 C28.6861492,10.622762 28.6401805,10.7441505 28.6175111,10.8735919 C28.5929525,11.011086 28.6272715,11.130685 28.7270801,11.2332837 C28.7591952,11.2663897 28.7916252,11.2994956 28.8209065,11.3346894 C28.9033982,11.4340072 29.0063554,11.4960436 29.1430019,11.5008157 C29.1637822,11.5017104 29.1848774,11.5052895 29.2056578,11.5097632 C29.3029476,11.5294479 29.338526,11.5732909 29.3319141,11.668135 C29.3303398,11.6928899 29.3215239,11.7173466 29.3202645,11.7421015 C29.3142823,11.8617005 29.3038921,11.9812995 29.3070407,12.1006003 C29.3101892,12.2255679 29.3775679,12.3195172 29.4994163,12.3705183 C29.5567197,12.3943784 29.6178013,12.4122736 29.6795126,12.4233089 C29.7780618,12.441204 29.8728328,12.4686432 29.9676037,12.5002579 C30.0812659,12.5381359 30.1987064,12.5700488 30.3170914,12.591523 C30.489946,12.6225412 30.6391867,12.5751191 30.7582014,12.447169 C30.8255801,12.3743956 30.8759567,12.2941658 30.9046084,12.2014095 C30.9471136,12.0627223 30.9902486,11.9240352 31.0100844,11.7796812 C31.0189003,11.7155571 31.0311796,11.6508364 31.0525896,11.5896948 C31.131303,11.3671988 31.2103313,11.1450011 31.2972309,10.925786 C31.342255,10.812152 31.3762592,10.6970267 31.3838157,10.5774277 C31.3942059,10.4023538 31.3876591,10.22728 31.3123439,10.0623466 C31.2556703,9.93887035 31.198052,9.8156923 31.1360258,9.69460202 C31.0308647,9.48970295 30.9030341,9.30299725 30.6766543,9.19711781 C30.5906992,9.1568538 30.5409523,9.08646635 30.5311919,8.99549951 C30.52458,8.93644563 30.5236354,8.87649699 30.5220611,8.81714486 C30.5211166,8.77240707 30.5327661,8.72558152 30.5220611,8.68322975 C30.4924649,8.56213946 30.4606646,8.44075093 30.4181594,8.32323967 C30.3589669,8.15920111 30.236174,8.04526888 30.0718203,7.97160065 C30.0050713,7.94207371 29.9364332,7.9161258 29.8696842,7.88659885 C29.7683013,7.84126456 29.6618808,7.8156149 29.5501077,7.8081586 C29.5132698,7.80577258 29.4754874,7.80547433 29.4402238,7.79682503 C29.2837415,7.75954353 29.1367048,7.78996523 28.9950206,7.85289639 C28.9188261,7.88659885 28.8442057,7.92447685 28.7708448,7.9632496 C28.5554849,8.07658533 28.3344576,8.06197099 28.1134303,7.98770626 C28.0032315,7.95072302 27.9613559,7.86691423 27.9887482,7.76043829 C27.9985087,7.72196379 28.0161405,7.68498055 28.032198,7.64829557 C28.0797409,7.53853886 28.1631772,7.45502832 28.260467,7.38464087 C28.4330068,7.25997156 28.4751972,7.09712601 28.4263949,6.90505177 C28.4128561,6.85196293 28.3967986,6.79887409 28.3785371,6.74697825 C28.3577567,6.68911738 28.3716103,6.63841455 28.4081333,6.59188725 C28.4330068,6.55997429 28.4632327,6.53164036 28.4903102,6.50121866 C28.5813029,6.39891825 28.6338834,6.28110874 28.6486816,6.14838664 C28.6546638,6.09380654 28.6559232,6.03892818 28.6587569,5.98404983 L28.6556084,5.98404983 L28.6556084,5.86415255 C28.6552935,5.7007105 28.5860257,5.56411112 28.4736229,5.44481035 C28.4525277,5.4221432 28.4314325,5.39977431 28.408763,5.37919492 C28.1773456,5.17071683 27.9789877,4.94076459 27.8618622,4.65414449 C27.8171529,4.54408953 27.7346613,4.45640347 27.6235179,4.40212162 C27.4393285,4.31204954 27.2765491,4.19483653 27.1159737,4.07255324 C27.0709497,4.03825427 27.0221473,4.00813083 26.9739747,3.97770913 C26.8496075,3.89956712 26.715165,3.84498702 26.5668689,3.82112687 C26.5309755,3.81546008 26.4947674,3.80710903 26.4591889,3.79875797 C26.344897,3.77221355 26.2614608,3.70838764 26.2076208,3.609368 C26.1836919,3.56492847 26.1613373,3.51959417 26.1345747,3.4766459 C26.0080035,3.27443109 25.8294815,3.13246317 25.5864144,3.07669006 C25.453861,3.04626837 25.3175294,3.02121521 25.1815126,3.01405716 C24.8329695,2.99556554 24.5596765,3.13574395 24.3534473,3.39760914 C24.289532,3.47873366 24.2514347,3.57119176 24.2397851,3.67349217 C24.2281355,3.77758209 24.2145968,3.88167201 24.1960205,3.98516543 C24.1752401,4.09939591 24.2029472,4.20318758 24.2618249,4.30131247 C24.3093678,4.38094573 24.373598,4.44715766 24.4551451,4.49607097 M5.42916534,18.4292079 C5.62500435,18.8336375 5.98204845,18.9991673 6.42000995,19.0477824 C6.50376104,19.0573264 6.58782698,19.0594142 6.66811467,19.0865551 C6.74777266,19.1136961 6.82522667,19.1050468 6.89732817,19.0683618 C6.99493282,19.0188519 7.09348203,18.9702369 7.1841599,18.9108847 C7.47508472,18.7208983 7.53900002,18.4035582 7.3419016,18.1232014 C7.28711706,18.0450594 7.22194234,17.9704964 7.14921114,17.9063723 C6.84821099,17.6406298 6.62466486,17.321202 6.43071498,16.9820896 C6.33657372,16.8171562 6.29469818,16.6367138 6.30760718,16.4476221 C6.31705279,16.311321 6.3605026,16.1836691 6.41938025,16.0598946 C6.47510935,15.9414886 6.53020875,15.8227843 6.5815299,15.7025888 C6.64103725,15.5624104 6.66905923,15.4162669 6.67126321,15.2641585 C6.67283748,15.1547 6.68826531,15.0455398 6.69834063,14.9360813 C6.70558226,14.8564481 6.71723185,14.7774113 6.7210101,14.6974798 C6.73108541,14.488107 6.73675278,14.2784359 6.74651325,14.069063 C6.74903208,14.0195532 6.75532915,13.9694469 6.7679233,13.9214283 C6.79563042,13.8149524 6.78555511,13.7135467 6.73738249,13.6145271 C6.72415863,13.5873861 6.7128239,13.5593505 6.69960004,13.5322095 C6.6366293,13.4018734 6.61333013,13.2685548 6.64135211,13.1242009 C6.6577245,13.0371113 6.65709479,12.9452498 6.65142743,12.8560724 C6.64513035,12.7564563 6.59758744,12.6702615 6.50092736,12.6231377 C6.32114589,12.5360481 6.13380794,12.5005561 5.9395432,12.5846632 C5.7695222,12.6580331 5.62217066,12.7618248 5.49056181,12.8867924 C5.42160885,12.9524078 5.37815904,13.0320411 5.3702877,13.1250957 C5.34950735,13.3589252 5.33407952,13.5927547 5.3743808,13.8268824 C5.38508582,13.8907084 5.38508582,13.9560255 5.3913829,14.0368518 C5.38256699,14.105748 5.37878875,14.1913463 5.35958267,14.2736638 C5.32054081,14.4421762 5.21412026,14.5564066 5.03811704,14.6118815 C4.91406468,14.6512508 4.78623407,14.6560228 4.66312628,14.6342504 C4.50538457,14.6062147 4.38353619,14.5235989 4.33756754,14.3637359 C4.30135937,14.2369788 4.295692,14.1078358 4.30167422,13.9777979 C4.30986042,13.8024258 4.36999748,13.6461418 4.49940235,13.5169987 C4.5249055,13.4916473 4.54851953,13.4645064 4.57276326,13.4382602 C4.85550189,13.1343415 4.82968389,13.177588 4.85676131,12.7716671 C4.85802072,12.7567545 4.8602247,12.7415437 4.85896528,12.7269293 C4.8561316,12.7024727 4.85581674,12.6759283 4.84542657,12.6538576 C4.76450917,12.480275 4.65399552,12.3341316 4.45815651,12.2592703 C4.36873806,12.2249714 4.27680078,12.2061815 4.18328923,12.1945497 C3.99500671,12.171286 3.8073539,12.1545839 3.61655256,12.176058 C3.50446464,12.1888829 3.41410163,12.2342172 3.35018632,12.3186225 C3.29792061,12.3869221 3.24754402,12.4593974 3.21385467,12.5366446 C3.10302616,12.7901587 2.99345708,13.0439711 2.91631792,13.3091171 C2.83760449,13.5808246 2.84956893,13.8400055 3.00195813,14.0899406 C3.06776255,14.1973113 3.11593517,14.3145243 3.16788603,14.4290531 C3.2204666,14.5453713 3.21731806,14.6658651 3.15844042,14.7780078 C3.02336818,15.0359957 2.91316938,15.310984 2.65813788,15.494409 C2.65435963,15.4976897 2.65089624,15.501567 2.64680315,15.505146 C2.56494118,15.5758317 2.52463991,15.6662021 2.51204576,15.7685025 C2.50669325,15.8132403 2.50669325,15.8582763 2.50385956,15.9030141 C2.49756249,16.002332 2.49378424,16.1022464 2.48370893,16.201266 C2.45820578,16.4520959 2.49661793,16.6886097 2.64396946,16.9039475 C2.67828852,16.9540539 2.70316196,17.009827 2.73653645,17.0605298 C2.85177291,17.2344107 2.88168401,17.4232041 2.84673525,17.6218399 C2.82501034,17.7477022 2.83697478,17.871775 2.85712542,17.9946548 C2.88325828,18.1521319 2.96826878,18.2747134 3.13325212,18.3319778 C3.21731806,18.3612065 3.30264341,18.3883474 3.38985789,18.4065407 C3.4884071,18.4271201 3.58947514,18.4250324 3.68487581,18.3868561 C3.77209029,18.3519606 3.85898991,18.3158722 3.94305585,18.2750116 C4.11905907,18.1894133 4.19714279,18.0411821 4.21823799,17.863424 C4.23366582,17.7327896 4.21634887,17.6042431 4.16817625,17.4801703 C4.12094819,17.3581852 4.06616365,17.2400775 4.00004437,17.1255487 C3.94242614,17.0256343 3.89771692,16.9179654 3.85521167,16.8108929 C3.8155401,16.7109786 3.83128279,16.6119589 3.90118031,16.5275536 C3.94966778,16.4693945 4.00350776,16.4130249 4.06395967,16.3664976 C4.14959988,16.3002857 4.24783424,16.2996891 4.34638345,16.3450234 C4.46130505,16.397814 4.53686994,16.4855001 4.584098,16.5952568 C4.60550805,16.6459596 4.62062103,16.6993467 4.63353003,16.7527338 C4.66721937,16.8905262 4.74435853,16.9987917 4.86589206,17.0808109 C4.92162117,17.1183907 4.97735027,17.1574617 5.02678231,17.2019012 C5.09132732,17.2600603 5.15429806,17.3209037 5.21065687,17.3865192 C5.33282011,17.5299783 5.38162243,17.6940169 5.34352513,17.8774418 C5.30290901,18.0713056 5.34289543,18.2502567 5.42916534,18.4292079 M23.5080651,21.1295808 C23.557812,21.0478598 23.6333769,21.0111748 23.7331855,21.0234031 C23.7539659,21.0260874 23.7753759,21.0281752 23.7955266,21.0332454 C23.9551574,21.0738077 24.0870811,21.0213154 24.1997987,20.9193132 C24.2640289,20.8611541 24.3194431,20.7931526 24.3773762,20.728432 C24.4362538,20.6625183 24.4491628,20.5846746 24.4286974,20.5029535 C24.3915446,20.3556171 24.3314076,20.2169299 24.2240424,20.1024012 C24.1834263,20.0585582 24.1317903,20.0215749 24.0792097,19.9902585 C23.9812902,19.9318011 23.8777034,19.881993 23.7788393,19.8247286 C23.5143622,19.6708307 23.4328151,19.3615434 23.5911865,19.1080293 C23.6421928,19.0266065 23.6994962,18.9484645 23.7561698,18.8703225 C23.8928163,18.682722 23.9252463,18.477823 23.8840004,18.2559235 C23.8616458,18.1348332 23.8018236,18.0301468 23.7482985,17.9221796 C23.6251907,17.6746305 23.3969218,17.552049 23.1085158,17.5797864 C23.0244498,17.5878392 22.9406987,17.599471 22.8578922,17.6131906 C22.7247091,17.6352613 22.6060093,17.6880519 22.5102937,17.7793169 C22.2993417,17.9815318 22.1393961,18.2132735 22.0622569,18.4915425 C22.0364389,18.5842989 22.0285676,18.67795 22.0443102,18.7733906 C22.0676094,18.9165515 22.0855561,19.060309 22.1142078,19.2022769 C22.1450634,19.3519993 22.1154672,19.4903882 22.04494,19.6228121 C22.0266784,19.6568128 21.9986565,19.6946908 21.9646523,19.7116912 C21.8871982,19.7498674 21.8343028,19.8083248 21.7776292,19.8682734 C21.6548362,19.999206 21.4520704,20.0114344 21.3097565,19.9022741 C21.2275797,19.8396412 21.1441435,19.7782013 21.1098244,19.6761992 C21.0887292,19.6153558 21.0336298,19.5891096 20.9716037,19.6001449 C20.8371611,19.6248999 20.7030335,19.6556198 20.5890564,19.7325688 C20.5160104,19.7817804 20.445798,19.834571 20.376845,19.8888528 C20.1614851,20.0585582 20.0878093,20.3335464 20.1876179,20.5784113 C20.2143805,20.6434302 20.2392539,20.7090456 20.2622383,20.7752575 C20.3091515,20.9103657 20.2912048,21.0412982 20.2307529,21.1689501 C20.1759684,21.2840753 20.099144,21.384288 20.0081513,21.4761496 C19.9096021,21.5748709 19.7899577,21.6351178 19.6463844,21.6395916 C19.4518048,21.6455566 19.2565955,21.6497322 19.0617011,21.6449601 C18.9237952,21.6419776 18.7909269,21.6058891 18.6703379,21.5387825 C18.5456559,21.4692898 18.4631642,21.3714631 18.4458472,21.2309865 C18.442069,21.2011613 18.4367165,21.1716343 18.4304194,21.1421074 C18.4153064,21.0687374 18.3709121,21.0126661 18.3025888,20.9792618 C18.0207947,20.8405747 17.7320739,20.8608558 17.5072683,21.0854395 C17.4505947,21.1427039 17.4021072,21.2113018 17.3646396,21.2819876 C17.2487735,21.500308 17.1376301,21.7210144 17.0299501,21.9432121 C16.9518664,22.1042681 16.8511132,22.2492185 16.7157261,22.3706071 C16.5523171,22.5176453 16.3571078,22.5513477 16.1433221,22.4949781 C15.9622812,22.4472578 15.8476745,22.3264658 15.7702205,22.1722695 C15.7296043,22.0917415 15.7003229,22.0052485 15.6726158,21.9196502 C15.6272769,21.7800683 15.5567496,21.6518199 15.4789808,21.5271506 C15.4103427,21.4176922 15.3162014,21.3300061 15.1968719,21.2715487 C15.1080831,21.228004 15.0152013,21.191319 14.9216897,21.1588095 C14.7825244,21.1098962 14.6458779,21.1218263 14.5048234,21.1677571 C14.3111884,21.2312847 14.1625774,21.3404449 14.0599351,21.5071678 C14.0331726,21.5504143 14.0076694,21.5939591 13.9799623,21.6363108 C13.9522552,21.6789609 13.9273817,21.7239969 13.8933775,21.7612784 C13.7721588,21.8931057 13.6440134,22.0195646 13.4938282,22.1224615 C13.4440813,22.1564622 13.3833145,22.1827084 13.3231775,22.1949367 C13.1742516,22.2247619 13.022807,22.2468325 12.8719921,22.2671137 C12.8260234,22.2730787 12.7772211,22.2662189 12.7309376,22.2596574 C12.6100338,22.242657 12.5306907,22.1740591 12.4881854,22.0684779 C12.4680348,22.0174768 12.4563852,21.9628967 12.4431613,21.9098079 C12.3672816,21.5978363 12.3197387,21.2816893 12.2847899,20.964051 C12.2592868,20.733204 12.1534959,20.5470948 11.9806412,20.3884248 C11.8622563,20.2795628 11.7212018,20.2193159 11.5590521,20.2017191 C11.3219673,20.1760694 11.1626513,20.2568957 11.0530822,20.4567245 C11.036395,20.4877427 11.0222266,20.5199539 11.0055393,20.5509721 C10.9419389,20.6708694 10.8481125,20.7624327 10.7212264,20.8226796 C10.6692756,20.846838 10.6176396,20.8721894 10.5647441,20.8945583 C10.3591447,20.9819461 10.1418956,20.9419804 9.98352419,20.7910649 C9.91677521,20.7269407 9.87993733,20.651483 9.88749381,20.5620074 C9.90229194,20.3869335 9.92559111,20.2142457 10.0427167,20.066611 C10.0971864,19.998013 10.1293015,19.9189763 10.1352837,19.8312902 C10.1466184,19.6702341 10.1378025,19.5118624 10.0710535,19.3603504 C10.0036748,19.2085402 9.93975953,19.0552387 9.86797288,18.9055162 C9.75116216,18.6618444 9.52887544,18.5458244 9.26849143,18.4843845 C9.21937425,18.4727527 9.16238573,18.4766299 9.11169428,18.4870688 C8.93443165,18.5225607 8.77165228,18.5959307 8.62618987,18.6964416 C8.56447854,18.7387934 8.51347224,18.802321 8.47411553,18.8655505 C8.39193871,18.9970796 8.34911861,19.1435213 8.36706527,19.295928 C8.38973474,19.4841249 8.41964584,19.6729184 8.51473166,19.844115 C8.6117066,20.0191889 8.65673068,20.2091754 8.69545768,20.4003549 C8.73324013,20.5858676 8.65610097,20.7111334 8.47380068,20.7818191 C8.44483413,20.7931526 8.41429333,20.8012054 8.38469708,20.8116443 C8.29055582,20.8438555 8.19641456,20.8763649 8.1022733,20.9091726 C7.99018538,20.9485419 7.90297091,21.0177363 7.83307338,21.1095979 C7.7323202,21.2420218 7.67155343,21.3881652 7.65108794,21.5507125 C7.6350304,21.6759783 7.66620092,21.7869281 7.74396979,21.8892285 C7.82362777,21.9945114 7.90360061,22.1000926 7.97412784,22.2110423 C8.07456618,22.3679228 8.20554532,22.4946799 8.36234246,22.5999628 C8.42247952,22.6402268 8.48261658,22.6807891 8.54401305,22.7195618 C8.62618987,22.7720542 8.68002985,22.8439329 8.70710727,22.9334085 C8.73040645,23.0103575 8.75055708,23.0876047 8.77165228,23.164852 C8.78613555,23.2179408 8.79621087,23.2722226 8.81541695,23.3238202 C8.86642325,23.4637004 8.96780614,23.5621235 9.10917545,23.6217739 C9.65953973,23.8550069 10.1673988,23.7667243 10.6399942,23.4341734 C10.7486187,23.3578209 10.8219796,23.2540293 10.8591323,23.1299565 C10.8818018,23.0533057 10.9013227,22.975462 10.9214734,22.8982147 C10.9605152,22.7508783 11.0244305,22.6148754 11.1198312,22.4931886 C11.1447047,22.4615739 11.1730415,22.430854 11.2054714,22.4058008 C11.2646639,22.35987 11.3314129,22.3559927 11.3956431,22.3959585 C11.4309067,22.4177309 11.4627069,22.4448718 11.4913586,22.473504 C11.5804622,22.5638743 11.6289497,22.6742275 11.6506746,22.7941248 C11.6705103,22.9026885 11.6805857,23.012147 11.6607499,23.1222019 C11.6509894,23.1764838 11.6446923,23.2310639 11.634617,23.2850475 C11.611003,23.411208 11.6251714,23.5355791 11.6664173,23.6548799 C11.7366296,23.8591824 11.899409,23.9704304 12.1138244,24.0151682 C12.2422847,24.0423091 12.372949,24.0619937 12.5036133,24.0745203 C12.5810673,24.0819766 12.6607253,24.0721343 12.738809,24.0643798 C12.8225601,24.056327 12.9053666,24.0312738 12.988488,24.0321685 C13.2120341,24.0342563 13.429598,24.0023434 13.6449579,23.9504475 C13.847094,23.9015342 14.0416736,23.9224118 14.2309007,24.0029399 C14.307725,24.0357476 14.3867533,24.0640815 14.4632627,24.0980822 C14.5536257,24.138048 14.6427293,24.1809963 14.7318329,24.2239445 C14.8829627,24.2970163 14.987809,24.4124398 15.067467,24.5523199 C15.1760915,24.7420081 15.2453593,24.946609 15.3152568,25.150315 C15.3470571,25.2433696 15.3395006,25.3379155 15.2938468,25.4279876 C15.2803081,25.4551285 15.2692882,25.4831642 15.2554346,25.5100068 C15.1077683,25.8016972 15.0281103,26.1112827 14.9991437,26.431307 C14.9544345,26.9207384 15.1461804,27.320396 15.5400624,27.632964 C15.6826911,27.7460015 15.8514527,27.7990904 16.0409946,27.7704582 C16.2129048,27.7448085 16.3854446,27.7236326 16.5557804,27.6911232 C16.7283203,27.6580172 16.8910996,27.5947878 17.0192451,27.4772765 C17.3032431,27.2169026 17.4726344,26.9046328 17.4748384,26.5219756 C17.4751533,26.4721675 17.4783018,26.421763 17.4877474,26.3728497 C17.5204922,26.2079163 17.5091575,26.0462638 17.4657077,25.8837165 C17.4291846,25.7486084 17.404626,25.610816 17.3759743,25.4739184 C17.3542494,25.3713197 17.3410256,25.2666333 17.3107996,25.1664206 C17.2704984,25.031909 17.2629419,24.8994851 17.3101699,24.7685526 C17.3910873,24.5418811 17.4783018,24.3169991 17.5645717,24.0921172 C17.5885006,24.0297825 17.6316356,23.9775884 17.6908281,23.9423947 C17.8177141,23.8678317 17.9553052,23.8189184 18.1032864,23.7992338 C18.1949088,23.7870055 18.2695292,23.8165324 18.32148,23.8904989 C18.3507614,23.9319559 18.3768943,23.9755007 18.4058608,24.017256 C18.5151151,24.1732417 18.6451496,24.3110341 18.8173746,24.404387 C19.1363214,24.5776713 19.5078488,24.4037904 19.5594848,24.063485 C19.5909702,23.8561999 19.6180476,23.6477218 19.6586637,23.441928 C19.698965,23.2391167 19.8393897,23.1069911 20.0371179,23.0327263 C20.1369265,22.9954449 20.224141,23.0327263 20.2773512,23.1230967 C20.2978167,23.1573957 20.3123,23.1961684 20.3217456,23.2346429 C20.3349695,23.2877317 20.3422111,23.3426101 20.3500825,23.3968919 C20.3686588,23.5269298 20.4127383,23.6492131 20.4788576,23.7640401 C20.5591453,23.9042185 20.6784749,23.9951853 20.8475513,24.0187472 C20.9357103,24.0312738 21.0248139,24.0423091 21.1139175,24.0435021 C21.2083737,24.0446951 21.3031446,24.0306773 21.3979156,24.0285895 C21.6582996,24.0226245 21.8758635,23.9176398 22.0729619,23.7682156 C22.2291294,23.6498096 22.3216964,23.4974028 22.3229558,23.3041356 C22.3232706,23.2346429 22.318233,23.1645537 22.3084725,23.0953593 C22.2983972,23.0213928 22.2798208,22.9483211 22.2653375,22.8746528 C22.2511691,22.8009846 22.2329076,22.7276146 22.225666,22.6533499 C22.2159055,22.5555233 22.2678564,22.4857323 22.3689244,22.468732 C22.4293763,22.4585914 22.4939213,22.4666442 22.5562624,22.4729075 C22.5971933,22.477083 22.6374946,22.4928904 22.6781108,22.5030309 C22.7461192,22.519733 22.8150721,22.5206278 22.8811914,22.4994519 C22.9857228,22.4657494 23.0899394,22.4305557 23.1922669,22.3908882 C23.2524039,22.3676246 23.2964834,22.321992 23.3251351,22.2671137 C23.3506383,22.2182003 23.372678,22.166901 23.387791,22.1144087 C23.4306111,21.9685635 23.4350191,21.818841 23.4192764,21.6688203 C23.4192764,21.5885905 23.4183318,21.5089573 23.4195912,21.4290257 C23.4208506,21.3219533 23.4517063,21.2220389 23.5080651,21.1295808 M20.0336545,9.73456778 C20.0333396,9.61496876 20.0632507,9.50610681 20.1463721,9.41543822 C20.2575155,9.29434794 20.2575155,9.15774856 20.2014715,9.02144743 C20.1306294,8.84816306 20.0251534,8.69396682 19.8708751,8.57228003 C19.7455633,8.47326039 19.6240298,8.37006522 19.5018666,8.26746656 C19.4782525,8.24778194 19.4568425,8.22481654 19.4401552,8.19976338 C19.3381426,8.0482514 19.2320369,7.89882718 19.1385254,7.74284143 C19.0601268,7.61161058 19.0191958,7.47053742 19.0289563,7.31335866 C19.0399762,7.12874071 19.0198255,6.94322802 18.9587439,6.76606637 C18.8551571,6.46513018 18.6451496,6.26381013 18.3224246,6.17194854 C18.2443409,6.14957965 18.1675166,6.14957965 18.091322,6.18298386 C17.9748261,6.23398494 17.7304996,6.49316586 17.6898835,6.61216838 C17.6864201,6.62141419 17.6826419,6.63095825 17.6807527,6.64080057 C17.6615467,6.74668 17.6023542,6.83555907 17.5441062,6.9247364 C17.4635037,7.04761619 17.3451187,7.09802077 17.195878,7.08907321 C17.0460077,7.08012565 16.9323455,7.01510673 16.8794501,6.8794021 C16.8485944,6.80036534 16.8290735,6.71655655 16.8142753,6.63334427 C16.793495,6.51434175 16.7591759,6.40011126 16.7113182,6.28856504 C16.6763694,6.20624751 16.6156027,6.14928139 16.5296476,6.11080689 C16.2720973,5.99568165 16.272727,5.99180438 15.9865249,6.01566453 C15.7031566,6.03952468 15.4893709,6.17373805 15.3530393,6.40816406 C15.271807,6.54744771 15.2085214,6.69627542 15.1354754,6.84003285 C15.0992672,6.91191156 15.0627442,6.98408853 15.0196092,7.05238822 C14.9808822,7.11352987 14.9235788,7.1573729 14.8486437,7.17795228 C14.6260421,7.23849742 14.3782522,7.15081136 14.2551444,6.96410565 C14.2249185,6.9178766 14.2053975,6.86478776 14.1770607,6.8173657 C14.1358149,6.74787301 14.0951987,6.6777838 14.0467113,6.61276488 C13.9944456,6.54178093 13.9229738,6.48839383 13.8357593,6.4606564 C13.6219736,6.39265496 13.4018909,6.3911637 13.2069964,6.49644663 C12.971171,6.62380021 12.7734429,6.79708457 12.6717451,7.04821269 C12.6248319,7.1648292 12.5757148,7.28025269 12.5527304,7.40402724 C12.5439145,7.45294056 12.5265976,7.50066086 12.5124292,7.54867942 C12.4771655,7.66887495 12.4431613,7.78936873 12.4053789,7.9086695 C12.3660222,8.0327423 12.3225724,8.15562209 12.2810117,8.27909839 C12.224338,8.44790898 12.1018599,8.55826219 11.9327835,8.62477237 C11.8065271,8.67458044 11.677752,8.71872172 11.5511808,8.7685298 C11.4737268,8.79895149 11.39155,8.82579417 11.3244861,8.87172496 C11.1349442,9.0017628 10.9737391,9.15834506 10.8616512,9.35638434 C10.8213499,9.42766655 10.7936428,9.50222953 10.7892348,9.58365231 C10.7766407,9.80495523 10.8141083,10.0086613 10.9838144,10.1795597 C11.1154233,10.3119835 11.2070457,10.4709518 11.2482915,10.6499029 C11.2895374,10.8306436 11.3216524,11.0128755 11.298983,11.2267222 C11.298983,11.2741442 11.2942602,11.3493037 11.2996127,11.4238667 C11.3210227,11.7221186 11.4381483,11.9741415 11.6985323,12.1566717 C11.8956307,12.2947623 12.1116204,12.3967645 12.3468161,12.4596956 C12.4274187,12.4808715 12.5124292,12.4910121 12.5961802,12.4945911 C12.749514,12.5014509 12.8738812,12.442397 12.9607808,12.3219032 C12.9932108,12.2768672 13.0199733,12.2273574 13.0420131,12.1769528 C13.074443,12.1032846 13.1056135,12.0284233 13.1276533,11.9517726 C13.158509,11.8449984 13.218646,11.7674529 13.3216032,11.709592 C13.5596326,11.5756769 13.6736096,11.3707778 13.6629046,11.1092109 C13.6569224,10.964857 13.64055,10.8208013 13.6216588,10.6773421 C13.6081201,10.5735504 13.5791535,10.4715483 13.563096,10.3680549 C13.5401117,10.2204202 13.5083114,10.0739785 13.5473533,9.92246649 C13.6137874,9.66388207 13.7504339,9.45361447 13.9894079,9.30747102 C14.1027552,9.23797833 14.2239739,9.22187272 14.3527491,9.25259267 C14.3984029,9.26362799 14.4424824,9.2803301 14.4875065,9.29494444 C14.5712575,9.32208537 14.6342283,9.37308645 14.6748444,9.44705293 C14.7258507,9.54010753 14.7755976,9.63375863 14.8225108,9.72830449 C14.8728874,9.82971014 14.8958717,9.93767734 14.8876855,10.0489253 C14.8754062,10.2180342 14.8647012,10.3880377 14.8373089,10.5553571 C14.8171583,10.6812194 14.8130652,10.8023097 14.8429763,10.9260842 C14.8829627,11.0940001 14.8842221,11.2631089 14.8480139,11.4319195 C14.8341604,11.4954471 14.8152692,11.5577818 14.800471,11.6210112 C14.7840986,11.6893109 14.7595401,11.7573123 14.7570212,11.8262085 C14.751039,11.9932296 14.6833455,12.1337063 14.5838517,12.2679196 C14.4900253,12.3943784 14.4065891,12.5276971 14.3190597,12.6583314 C14.2822218,12.7129115 14.2529404,12.7728601 14.2104352,12.8232647 C14.0696956,12.990584 13.993501,13.1874303 13.9204549,13.3854696 C13.8770051,13.5020861 13.8801537,13.6198956 13.9188807,13.7383016 C13.9802771,13.9256038 14.094569,14.0792036 14.2523107,14.2020834 C14.3817156,14.3025943 14.529382,14.3371915 14.6968842,14.293945 C14.8517922,14.2539792 14.9884387,14.1829952 15.1225664,14.1018707 C15.2781041,14.0082196 15.4326973,13.9109895 15.5973658,13.8337422 C15.8835678,13.6989324 16.177956,13.6598614 16.474863,13.8164436 C16.5875807,13.876094 16.711633,13.8990594 16.8404082,13.8969716 C16.8929888,13.8960769 16.9458842,13.8942874 16.9984648,13.8910066 C17.0885129,13.8856381 17.1773017,13.8886206 17.2632567,13.9190423 C17.3797526,13.9602011 17.5025455,13.9485692 17.6234494,13.9515517 C17.6489525,13.9521482 17.6776042,13.9476745 17.6999588,13.9366391 C17.8488846,13.8602867 17.9993847,13.7812499 18.0746347,13.6279484 C18.1347718,13.5059634 18.183889,13.3795046 18.2314319,13.2527475 C18.2638618,13.1671492 18.2679549,13.0758841 18.2493785,12.9864085 C18.2301725,12.8936522 18.2040396,12.8017906 18.1857781,12.7090342 C18.1448471,12.5059247 18.0384265,12.3347281 17.8951681,12.1850056 C17.6968103,11.9774223 17.5110466,11.7608914 17.340081,11.5327286 C17.2226406,11.3758481 17.1373152,11.2097218 17.1199983,11.012279 C17.105515,10.8473457 17.0995328,10.6836054 17.1023665,10.5189703 C17.1039407,10.4453021 17.0847347,10.3713356 17.0749742,10.2976674 C17.066788,10.2335433 17.0523047,10.1694191 17.051675,10.1055932 C17.0494711,9.87862346 17.1262954,9.66298732 17.1662818,9.44198264 C17.1732086,9.40410465 17.1961929,9.36712141 17.2182326,9.33371719 C17.3375622,9.1493975 17.5214368,9.06290445 17.7399452,9.03367576 C17.7755237,9.02890373 17.8161398,9.02920198 17.8495143,9.04053555 C18.1036013,9.12702861 18.3076265,9.2654175 18.3879142,9.52549318 C18.4014529,9.56844146 18.4099539,9.612881 18.4200292,9.65672403 C18.4562374,9.81270978 18.4823703,9.96988855 18.5022061,10.1288568 C18.5188933,10.2639649 18.5226715,10.3969853 18.5040952,10.5317952 C18.4955941,10.5905508 18.491501,10.6519907 18.4996872,10.7101498 C18.5336914,10.9526286 18.5588797,11.1974935 18.6139791,11.4354985 C18.6703379,11.6785738 18.8006874,11.8816834 19.0733507,11.9634044 C19.1545829,11.9878611 19.2317221,12.0179845 19.2962671,12.0725646 C19.3463288,12.1149164 19.4070956,12.1253552 19.4722703,12.1253552 C19.752805,12.1256535 19.970054,11.9860716 20.0676587,11.7361364 C20.1192947,11.6040108 20.144483,11.466815 20.1416493,11.3251453 C20.1369265,11.0999651 20.1111085,10.8771709 20.0544348,10.6579557 C19.9961869,10.432179 19.9983909,10.2028233 20.0157078,9.97316932 C20.02169,9.89353606 20.0336545,9.81390279 20.0336545,9.73456778 M23.1910074,6.36253152 C23.2143066,6.28081049 23.230679,6.1970017 23.2432732,6.11319291 C23.2760179,5.89785502 23.1771539,5.72964094 22.9674613,5.64195487 C22.8459278,5.59065554 22.7158932,5.56947965 22.5839695,5.55904083 C22.4895134,5.55158454 22.4048177,5.57783071 22.3380688,5.64046361 C22.2524285,5.72128988 22.1711963,5.80629168 22.089964,5.89099523 C22.0616272,5.92052217 22.0414766,5.95661065 22.0140843,5.98673409 C21.9127014,6.09828031 21.8232829,6.11557893 21.6765611,6.06368309 C21.5484157,6.01864705 21.4186959,5.97719003 21.2877168,5.93990854 C21.2228569,5.92171517 21.153904,5.91694314 21.1082502,5.9097851 C20.8601455,5.9172414 20.6948473,6.0183488 20.5814999,6.19819471 C20.5141212,6.30526715 20.4498911,6.41472561 20.3929026,6.52686833 C20.3588984,6.59337851 20.3365437,6.66615198 20.316708,6.73773244 C20.2764067,6.88447239 20.2823889,7.03538786 20.2852226,7.18511033 C20.288686,7.38672863 20.3286724,7.58148714 20.4228137,7.76431557 C20.4483168,7.81352713 20.4728754,7.8633352 20.4964894,7.91344153 C20.613615,8.16188538 20.7675785,8.38766209 20.9656214,8.58421011 C21.0493725,8.66772065 21.0994343,8.75779273 21.112973,8.87321622 C21.138791,9.09571216 21.2357659,9.29494444 21.3557252,9.48493092 C21.3998047,9.55502012 21.4596269,9.61377575 21.5449523,9.63614465 C21.6356301,9.65970655 21.7288268,9.67968943 21.8220235,9.68953174 C21.9256104,9.70056706 22.0065278,9.65403976 22.0587935,9.56933621 C22.0934274,9.5135631 22.1198751,9.45301796 22.1541942,9.39724485 C22.2231471,9.28540038 22.2867476,9.16908213 22.3679799,9.06588697 C22.4744004,8.93018234 22.5943597,8.9087082 22.7590282,8.97521838 C22.8122384,8.99699077 22.8632447,9.02353519 22.9173996,9.04262332 C23.0423965,9.0867646 23.1692825,9.08915062 23.2810556,9.01637715 C23.4069971,8.93465612 23.5263266,8.84398753 23.6447116,8.75272244 C23.7017001,8.70828291 23.7511322,8.65101854 23.7681343,8.58212234 C23.8046573,8.43687366 23.8383467,8.29073021 23.8622755,8.14309551 C23.8714063,8.08612939 23.8575527,8.02349649 23.8433843,7.96593387 C23.7722274,7.68110328 23.6541572,7.41685207 23.4602074,7.18511033 C23.3981812,7.1108456 23.3415075,7.03210709 23.2898715,6.95128082 C23.1730608,6.76875064 23.1308704,6.57369388 23.1910074,6.36253152" id="Fill-1"></path>
                </g>
            </g>
        </g>
    </g>
</svg>