<?xml version="1.0" encoding="UTF-8"?>
<svg width="94px" height="179px" viewBox="0 0 94 179" version="1.1" xmlns="http://www.w3.org/2000/svg" xmlns:xlink="http://www.w3.org/1999/xlink">
    <!-- Generator: Sketch 63.1 (92452) - https://sketch.com -->
    <title>Fill 1</title>
    <desc>Created with Sketch.</desc>
    <g id="→-Symbols" stroke="none" stroke-width="1" fill="none" fill-rule="evenodd">
        <g id="Logo-—-Dandelion" fill="#000000">
            <path d="M93.859313,27.2642931 C93.5106419,26.5687025 92.9407193,26.1754037 92.1937955,26.0205324 C91.6777196,25.9135594 91.1595112,25.8151016 90.6402365,25.7267558 C90.1492181,25.6431997 89.6539345,25.5862539 89.1623829,25.5032301 C88.1520898,25.3329248 87.1401972,25.1674094 86.1128437,25.1354771 C85.9758277,25.1317517 85.8404111,25.0801279 85.7033951,25.0641618 C85.2640909,25.0136024 84.8237204,24.9726227 84.3844161,24.9199345 C83.7249266,24.8411683 83.061172,24.7831581 82.4086133,24.6623478 C81.9970321,24.5857104 81.5945143,24.5143951 81.1738698,24.5410053 C80.1155944,24.608063 79.0647829,24.535151 78.0272999,24.318544 C77.2867736,24.1636727 76.5414492,24.1519642 75.7897271,24.1796388 C75.3749472,24.1945405 74.9585678,24.185493 74.5432547,24.1737845 C73.7664752,24.1519642 72.990762,24.1189675 72.2150488,24.0923573 C70.3863916,24.0295573 68.5566681,23.9699504 66.7269446,23.9018283 C66.5350155,23.8949096 66.3446859,23.8406248 66.1522237,23.8140146 C63.7914965,23.4829838 61.4872818,22.797505 59.0913676,22.6846778 C58.9815416,22.6788235 58.8583871,22.6761625 58.7661545,22.6271997 C58.5491681,22.5117115 58.3321817,22.3866435 58.1439846,22.2307078 C57.9893751,22.1029788 58.0373573,21.8432633 58.212226,21.7288394 C58.5443699,21.5122324 58.9191646,21.4276119 59.3056884,21.3589576 C59.8782767,21.2573067 60.4476662,21.1333031 61.0111912,20.9901403 C61.898863,20.7644858 62.7806703,20.5186075 63.6635439,20.2748581 C64.3582203,20.0822003 65.0491649,19.8741085 65.7443745,19.6830473 C66.145293,19.5734132 66.552609,19.4887928 66.9551269,19.385013 C67.4909288,19.2471722 68.0352608,19.1327483 68.5561349,18.9486058 C69.1367203,18.7426428 69.7317003,18.6351376 70.3346774,18.5345511 C70.9083319,18.4392865 71.4899835,18.3445542 72.039647,18.1636049 C72.7567152,17.9273063 73.483913,17.7761604 74.2281712,17.6766382 C74.5293931,17.6361907 74.8258169,17.5563601 75.1243731,17.4962211 C76.75577,17.1651902 78.3535792,16.687271 80.0063015,16.4456504 C80.8534549,16.3221791 81.6830149,16.076833 82.5227045,15.8958837 C82.7930045,15.8378734 83.0686359,15.7915717 83.3432011,15.7750734 C84.1210468,15.7282394 84.8930281,15.6398936 85.6452833,15.434995 C86.4252616,15.2221134 87.2143032,15.0975777 88.023604,15.0677743 C88.4453147,15.0518082 89.3159261,14.8266859 89.9604878,14.5515364 C90.47763,14.3312039 90.6610288,13.7819694 90.9020064,13.5110776 C90.9718472,13.4328436 91.0624804,13.3551418 91.115794,13.2609417 C91.3413106,12.864982 91.5503,12.3923848 91.3226509,12.0012149 C90.9739798,11.4019532 90.485627,10.8660238 89.6741937,10.9309527 C89.0115054,10.9836409 88.3461514,11.0427155 87.6919932,11.1582038 C86.3815444,11.3897125 85.1297406,11.8830656 83.8022314,12.0501776 C83.6390917,12.0709336 83.4828828,12.1417167 83.3234751,12.1896151 C81.8626818,12.6260224 80.4024217,13.063494 78.9405622,13.4967081 C78.7816876,13.5440742 78.6169485,13.5802641 78.4522094,13.595698 C77.6988879,13.6670134 76.9892836,13.8969255 76.2791462,14.145997 C75.7849289,14.3184311 75.272585,14.4514821 74.7586417,14.5573906 C73.9706664,14.7197129 73.1757603,14.842652 72.454427,15.2359507 C72.2635642,15.3397305 72.0369813,15.3870967 71.8231937,15.4397849 C70.7734485,15.7000326 69.7242364,15.9656024 68.6702261,16.2040298 C67.209966,16.5345285 65.7449077,16.8442712 64.2814487,17.1604004 C63.9839587,17.2253292 63.672074,17.2466174 63.386313,17.3445429 C61.6733463,17.9315639 59.8708128,18.1423167 58.1295899,18.6133173 C57.4082566,18.8091683 56.6618659,18.8858057 55.9709214,18.4573815 C56.090877,17.968286 56.0903439,17.9677538 56.3814362,17.6888789 C56.9849464,17.1109054 57.6577644,16.6260676 58.3727,16.1944501 C59.2742334,15.6500054 60.1656371,15.090659 61.061306,14.5387635 C62.3093779,13.7707931 63.6182273,13.1023449 64.7932595,12.2146287 C65.2736152,11.8521978 68.3114254,9.83514464 69.3361132,9.17414729 C69.9881388,8.75423834 70.6460289,8.34337686 71.3124492,7.94688489 C71.9074292,7.59296924 72.5162708,7.26193835 73.1219135,6.92611764 C73.2909177,6.83191753 73.4791148,6.77124628 73.6422545,6.66853091 C74.7191896,5.987842 75.7641366,5.25712593 76.8799907,4.63764048 C77.2425233,4.43593517 77.5954595,4.20761966 77.9244046,3.95482276 C78.4292846,3.56737826 78.9181705,3.15811339 79.3985262,2.73980105 C79.8415624,2.35342096 80.0025695,1.82015256 80.0814737,1.26293498 C80.1379861,0.865378603 79.8308997,0.233652467 79.4982227,0.155950685 C78.8813841,0.0117234033 78.2522833,-0.140486938 77.6434418,0.237377895 C77.3144967,0.441744227 76.9732896,0.642917335 76.6118232,0.775436129 C75.4261282,1.20918238 74.4968718,2.07454607 73.393813,2.64772976 C73.0046235,2.84943508 72.6783442,3.17088629 72.3184772,3.42953742 C72.1617352,3.54183247 72.0017943,3.66796481 71.8231937,3.73076488 C71.2618012,3.92874477 70.8118343,4.29915874 70.3320117,4.62859301 C69.7391642,5.03572907 69.1383197,5.43328545 68.528945,5.81700452 C68.0587188,6.11237774 67.5922246,6.40402552 67.1721133,6.77337509 C66.8623612,7.04533133 66.5190214,7.30185365 66.1484918,7.47960979 C65.5183248,7.78243386 64.9484021,8.17094277 64.3816783,8.56956356 C63.9962209,8.84098759 63.6214261,9.13157097 63.2167757,9.37265938 C61.4504954,10.4269555 59.8590838,11.7303231 58.177039,12.9054295 C57.5191489,13.3641893 56.9215032,13.908634 56.2737427,14.3833599 C55.5811988,14.8916148 54.8614649,15.3626153 54.1550594,15.8517107 C53.6768362,16.1832738 53.2044775,16.5233522 52.7225224,16.8495932 C51.8966944,17.410004 51.0628693,17.9587063 50.2391739,18.5217782 C50.0579076,18.6457817 49.8915691,18.7990564 49.7390921,18.9587176 C48.7666516,19.9741629 47.5020525,20.3951362 46.1729439,20.5899229 C45.2740763,20.7213773 44.3480187,20.6734789 43.4331569,20.6963637 C43.2406947,20.7011535 43.0461,20.666028 42.854171,20.6420789 C41.484544,20.4765634 40.2268757,19.9725662 39.0033281,19.3663859 C38.631199,19.1817111 38.2691995,18.9651041 37.8810763,18.8246022 C36.9939377,18.5036832 36.0924043,18.2242761 35.2852361,17.7181501 C35.1471538,17.6314009 34.9754839,17.597872 34.8182087,17.5441194 C33.9204074,17.2391665 33.0823172,16.8112745 32.2655525,16.3344198 C31.9312761,16.1396331 31.5852707,15.9586837 31.2270032,15.8117954 C30.4049071,15.4738459 29.6153324,15.082676 28.8540139,14.6180619 C28.1934581,14.2157157 27.4875857,13.8820238 26.7849122,13.5531217 C25.3299835,12.8708362 23.8494642,12.2396423 22.4051982,11.5328754 C21.5111287,11.0954037 20.6709061,10.548298 19.7954964,10.070911 C19.16373,9.72604283 18.5255659,9.38756109 17.8676758,9.0959133 C16.7278306,8.58978731 15.5693256,8.12570543 14.4225496,7.63714217 C14.0909388,7.49557591 13.7689246,7.33059267 13.4447777,7.1746569 C13.1947369,7.0543788 12.9521599,6.91813458 12.6962545,6.81222598 C11.7152839,6.40828316 10.8084191,5.90322157 10.0167119,5.17463431 C9.28738151,4.50352508 8.65774764,4.57058278 7.76794329,4.89682382 C7.42407043,5.02295617 7.11858337,5.61849243 7.16443309,6.00434033 C7.21294848,6.41573401 7.29185264,6.82340227 7.35422958,7.23319934 C7.44326333,7.82234916 7.73702139,8.24917676 8.28561856,8.52006859 C9.10504892,8.92614023 9.91168402,9.35882207 10.7172528,9.79256833 C11.1064423,10.0022567 11.4785714,10.2449417 11.8624294,10.4658064 C12.1732479,10.6446269 12.4840663,10.8266407 12.8055474,10.9857697 C13.3765363,11.26837 13.9736489,11.5025397 14.5275774,11.8149435 C15.4515025,12.3359712 16.4234098,12.7298021 17.426239,13.0650907 C17.8452841,13.2050603 18.2568653,13.379091 18.6519192,13.5770709 C19.5939709,14.0491358 20.5269593,14.5398279 21.4588814,15.0315844 C22.5875308,15.6265885 23.7161801,16.2189315 24.9008088,16.7016405 C25.3603722,16.8884441 25.7874143,17.1550783 26.228318,17.3887159 C26.4730275,17.5185736 26.701743,17.6878145 26.9581815,17.7846756 C27.8239947,18.1114489 28.5575901,18.6713275 29.3583607,19.1114602 C29.9666692,19.4472809 30.4347628,19.8980577 30.3393314,20.7804519 C30.200716,20.8272858 30.0732964,20.9076486 29.9474763,20.906052 C29.3940809,20.9012622 28.8396192,20.8868927 28.2872901,20.8480418 C27.7909402,20.8134485 27.2972561,20.7410688 26.8025057,20.6905094 C26.5545974,20.6654958 26.3056227,20.6484653 26.0566481,20.6309026 C25.4206166,20.5872618 24.7851182,20.5239296 24.1480205,20.5084957 C23.3408522,20.4898685 22.5406148,20.4526142 21.7521063,20.2599564 C21.1571263,20.1141325 20.5509504,20.0641053 19.9362443,20.0566545 C19.4670845,20.0508002 18.9941926,19.9986442 18.5308973,19.9204102 C17.7359912,19.7852304 16.9426845,19.6761286 16.1323174,19.6867727 C15.6066451,19.6931591 15.0745752,19.6761286 14.5547674,19.6032167 C13.0438593,19.3929961 11.5260205,19.2418502 10.0215101,18.9704261 C8.73611866,18.7389174 7.45765801,18.50049 6.20158908,18.1423167 C5.9648766,18.075259 5.71163689,18.0374725 5.46532796,18.0326827 C4.38359457,18.0113945 3.30186118,18.0002183 2.2201278,18.0002183 C1.50892408,18.0002183 0.937935192,18.3269915 0.484769406,18.850148 C-0.00998100508,19.4222673 -0.0622283545,20.4515498 0.048663979,20.8235604 C0.159556312,21.1961032 0.688960577,21.8123954 1.21943111,21.9252227 C1.78722119,22.046033 2.36087576,22.1679077 2.93826228,22.213145 C4.68055145,22.3504537 6.42603943,22.447847 8.16939486,22.5654641 C8.88966189,22.6138946 9.60832951,22.6793557 10.3280634,22.7256575 C11.6294489,22.8092135 12.9308344,22.8890441 14.2332862,22.961956 C14.9247639,23.0008069 15.617841,23.034868 16.3109181,23.0487053 C17.9188569,23.0806375 19.5267957,23.0987325 21.1347346,23.1242783 C21.3016062,23.1274715 21.4674116,23.1466308 21.6337501,23.1546139 C22.7693302,23.2115597 23.9054435,23.2631835 25.0410236,23.3249192 C25.4003574,23.3446107 25.7580918,23.3941057 26.1174257,23.4223125 C26.7241347,23.4712753 27.3313768,23.5351397 27.9391521,23.5542991 C28.4664238,23.5718618 28.9894305,23.5681364 29.511904,23.676706 C30.3270692,23.8454147 31.151831,23.9268419 31.9888548,23.9460012 C32.5065301,23.9582419 33.0210066,24.1237574 33.5333505,24.234988 C33.5914623,24.2477609 33.6597037,24.3510085 33.6677008,24.4185984 C33.6756978,24.4867205 33.6330469,24.5936935 33.5781339,24.6288189 C33.4405848,24.7155682 33.2897072,24.8055107 33.1329652,24.8337175 C32.2863448,24.983799 31.4381251,25.1285585 30.5872397,25.2509654 C29.4900454,25.40903 28.3827215,25.4718301 27.3025875,25.7714609 C26.6676222,25.9481526 25.9910724,26.0141459 25.3289172,26.0466104 C24.6065176,26.082268 23.8921151,26.1567766 23.1771794,26.2557665 C22.2708478,26.3813667 21.3703808,26.5442211 20.4464557,26.5277228 C20.0924533,26.5213363 19.7363183,26.6373568 19.3807164,26.6943026 C18.5596866,26.8252248 17.7370574,26.9486961 16.9170939,27.0849404 C16.4255423,27.1663676 15.9313251,27.2435371 15.4488368,27.3638152 C14.4252152,27.6192732 13.4074582,27.8960192 12.3513154,27.9886227 C12.1316632,28.0077821 11.9130774,28.0594059 11.6982235,28.1126263 C10.5940984,28.3861791 9.488907,28.6549421 8.38958012,28.9455255 C7.20015322,29.2600581 5.98460264,29.3452107 4.76425383,29.4021565 C3.86538617,29.4436684 3.02782917,29.7310586 2.19720294,30.0392047 C2.02126799,30.1046658 1.86452594,30.2393134 1.71951289,30.3649135 C1.47640277,30.5751341 1.3575134,30.8508158 1.36870926,31.1754602 C1.38097139,31.5341657 1.38203766,31.8944678 1.41402583,32.2515767 C1.469472,32.8774486 1.68219335,33.1504692 2.29903196,33.2989541 C2.75539656,33.4096526 3.22562271,33.4820323 3.69318317,33.5171578 C5.12572019,33.6235986 6.50760927,33.2526524 7.88363385,32.9535538 C8.99149091,32.7124653 10.0801551,32.3745158 11.1965423,32.1477969 C11.6027921,32.0653053 11.9962466,31.9194814 12.4003639,31.8236847 C13.3146925,31.6065455 14.201298,31.2552908 15.1646752,31.2654027 C15.410451,31.2675315 15.6599587,31.2015382 15.9025357,31.1472534 C17.3105485,30.8327209 18.7174949,30.5187205 20.1212426,30.1908828 C21.0942162,29.9636317 22.0613253,29.7145603 23.030567,29.4761329 C23.1926404,29.4367498 23.3541806,29.3978989 23.5173203,29.36437 C25.093271,29.0413222 26.6692216,28.71721 28.2462386,28.4000164 C28.4898818,28.3510536 28.740989,28.3063485 28.9883642,28.3116706 C30.1042183,28.3356197 31.1998132,28.2100196 32.2943419,27.994477 C32.776297,27.8992125 33.2870415,27.9343379 33.7844576,27.9407244 C34.0190376,27.9439176 34.1997707,28.0849517 34.2701447,28.3281689 C34.3458501,28.589481 34.2760092,28.8119423 34.0265015,28.9705391 C33.652773,29.2084343 33.2657161,29.4261057 32.8834574,29.651228 C32.3823094,29.9466012 31.8832939,30.2451676 31.3794801,30.5352188 C30.8756664,30.82527 30.3857142,31.1499144 29.8552437,31.3819554 C29.3167761,31.6177217 28.8092304,31.8875492 28.3326066,32.2265631 C26.2021943,33.7449411 23.8953139,34.9573018 21.5559122,36.1132488 C20.9097511,36.4331034 20.2364,36.7199614 19.6446188,37.1223076 C18.4034777,37.9663831 17.1047579,38.7077433 15.8119026,39.4656018 C15.2883628,39.7726835 14.7541603,40.0930703 14.3095247,40.5002063 C13.7230748,41.0361357 13.054522,41.4320955 12.3523816,41.7418382 C10.9752908,42.3501474 9.71015853,43.1489856 8.43542983,43.9286644 C7.41500711,44.5518753 6.63716137,45.4821679 5.8118665,46.3331621 C5.16623854,46.9978848 5.44506878,48.0904996 6.28209265,48.5040221 C6.50600986,48.6141884 6.74432175,48.6934867 6.97357032,48.7924767 C7.35369645,48.9563955 7.72902434,48.9356396 8.10648479,48.7823648 C8.59643697,48.5827883 9.06186489,48.3470219 9.47397919,48.0048148 C10.8809257,46.8360948 12.3182609,45.7035647 13.8387654,44.6859907 C14.666726,44.1319664 15.4594995,43.5321725 16.3439725,43.0521245 C17.3638621,42.4991645 18.2995161,41.7939942 19.2719566,41.1537528 C19.4564217,41.0318781 19.6376881,40.9036169 19.8210869,40.7801456 C20.7402138,40.1595958 21.6572081,39.5374493 22.5795337,38.9216893 C22.9943137,38.6454754 23.4138919,38.3751158 23.8430666,38.1217867 C24.701949,37.6135319 25.5682954,37.1175178 26.4335754,36.6204392 C26.744927,36.4416187 27.0632093,36.2734422 27.3782928,36.1010081 C27.9844687,35.7683807 28.5943765,35.4394786 29.198953,35.1031257 C29.7310229,34.8061558 30.2561621,34.4969453 30.7876989,34.1999755 C31.0292096,34.0647957 31.2936452,33.9652735 31.5255595,33.8162564 C32.6456787,33.0972488 33.7514032,32.3569531 34.8763206,31.6459285 C35.3188237,31.3665215 35.7805196,31.1036127 36.2640742,30.9029718 C36.8313311,30.6682698 37.3772626,30.4085543 37.8693473,30.0397369 C38.2702658,29.7395739 38.7026392,29.4990177 39.1749979,29.3175361 C39.5087412,29.1892749 39.8403519,29.0216307 40.1239804,28.8066203 C41.1273428,28.0450364 42.3423602,27.8135276 43.4976664,27.4404526 C43.9865523,27.2829202 44.4461157,27.6176766 44.5383483,28.1206093 C44.6321803,28.6368472 44.7372081,29.1520207 44.701488,29.6863535 C44.6700329,30.154693 44.6151199,30.6379342 44.6908252,31.0945652 C44.8838206,32.2483835 44.9680561,33.4016695 44.9046129,34.5682607 C44.8955496,34.7337761 44.9094111,34.9008882 44.9179413,35.0669358 C44.9515289,35.7029196 44.9995111,36.3383711 45.0203034,36.9748871 C45.0714845,38.5518075 45.2058348,40.1234059 45.15572,41.7067128 C45.1168011,42.9526023 45.1231987,44.1984918 44.9909809,45.4390593 C44.908878,46.212884 44.881688,46.9845797 44.9509957,47.7621298 C44.9856496,48.1458488 44.9685892,48.5370188 44.940333,48.9223345 C44.8438353,50.22038 44.7404069,51.5147001 44.7494702,52.8212609 C44.7585335,54.1762522 44.6455087,55.532308 44.5916619,56.8883638 C44.5703365,57.4136491 44.5415471,57.9405311 44.5538092,58.4658164 C44.5692702,59.130007 44.631114,59.792601 44.6583039,60.4567915 C44.7345424,62.339197 44.8086483,64.2210703 44.7137501,66.1066691 C44.6812288,66.7676664 44.732943,67.4382435 44.815046,68.0955154 C44.9115436,68.8682756 44.9504626,69.6373104 44.936601,70.4153926 C44.9147425,71.6336075 44.8806217,72.8550157 44.9440649,74.0700374 C45.0080413,75.2903811 45.0320324,76.5043384 44.9259383,77.7225534 C44.8470342,78.634751 44.8704921,79.5448198 45.0155052,80.4559531 C45.1631839,81.3862456 45.234091,82.3287789 45.1530543,83.2729088 C45.0842798,84.0765368 45.1146685,84.875375 45.18291,85.6784708 C45.2559496,86.5331904 45.2788745,87.3932321 45.3103295,88.2511449 C45.3892337,90.3544151 45.4260201,92.4566208 45.7853539,94.5433927 C46.0247321,95.9329773 46.142022,97.3454467 46.2758392,98.7515296 C46.3627404,99.6594696 46.4027256,100.573796 46.4256505,101.485994 C46.4555061,102.67547 46.4171203,103.861752 46.6005192,105.049099 C46.7316707,105.892643 46.7700565,106.763328 46.7348695,107.616984 C46.6836884,108.901192 46.8175056,110.160919 46.9966394,111.423839 C47.0979353,112.139121 47.1176613,112.853871 47.0435554,113.577136 C46.9939737,114.069425 46.9859767,114.575019 47.0360915,115.066775 C47.1619116,116.307343 47.3303827,117.542056 47.4828596,118.77943 C47.6998461,120.539961 47.8731153,122.302621 47.8651183,124.080714 C47.8635189,124.546925 47.9605497,125.014732 48.0229266,125.480411 C48.1124935,126.138747 48.220187,126.794422 48.3049557,127.453291 C48.4856888,128.853519 48.6605575,130.254813 48.8284954,131.656106 C48.8914055,132.178198 49.0097617,132.711998 48.9548487,133.225043 C48.8695469,134.041976 48.9884363,134.83017 49.1254523,135.618364 C49.5604915,138.130367 50.2338425,140.590214 50.7872379,143.076671 C51.1657646,144.778127 51.6194635,146.463085 52.0454394,148.153897 C52.1941844,148.742515 52.4053063,149.318359 52.5119336,149.913896 C52.7321188,151.148077 53.0925189,152.327441 53.6731043,153.444005 C53.8495723,153.784083 54.439221,155.863404 54.7079217,156.497791 C54.826811,156.778263 54.991017,157.039043 55.1067075,157.320579 C55.2634496,157.703233 55.429255,158.088017 55.5300177,158.487702 C55.9202734,160.022578 56.4576747,161.495719 57.1342246,162.933202 C57.8171721,164.384522 58.3897604,165.889063 58.9804753,167.382427 C59.6047778,168.960412 60.3980845,170.445793 61.3076149,171.876358 C61.8327541,172.702871 62.3546944,173.534173 62.6841726,174.459676 C63.5713113,175.923237 64.4189979,177.120696 65.2176359,178.247904 C65.7193171,178.9568 66.1522237,179.093576 66.5147564,178.947752 C66.7621316,178.848762 67.0148381,178.697616 67.0857452,178.195216 C67.1225316,177.931775 66.9657896,177.41394 66.9428647,177.046187 C66.8799547,176.375078 66.889018,175.938671 66.8207765,175.337813 C66.763731,174.837009 66.7141493,174.28192 66.677896,173.801872 C66.6539049,173.482017 66.4971629,172.836986 66.4230569,172.042405 C66.3526829,171.279757 66.3649451,170.366495 66.3622794,170.028546 C66.3612131,169.900284 66.3926682,169.180745 66.392135,169.051951 C66.3558818,168.088662 66.3025681,167.677268 66.3009687,166.824678 C66.27058,166.337711 66.3793398,165.509601 66.3009687,165.024764 C66.1986066,164.38878 66.27058,164.079037 66.3244267,163.402606 C66.3548155,163.021548 66.3446859,162.472313 66.372409,162.085401 C66.4059966,161.616529 66.4886327,161.307319 66.5216871,160.837915 C66.5584735,160.309968 66.5979256,159.78149 66.6357783,159.253544 C66.5456783,158.767109 66.6576369,158.221068 66.27058,157.671833 C66.0893136,157.414779 66.0375994,157.343996 65.7816941,157.03106 C65.519391,156.711737 64.8316453,156.247123 64.4653807,155.865001 C63.9892901,155.573885 63.5707782,155.206132 63.1837213,154.800593 C62.8777011,154.479674 62.5402258,154.188026 62.239537,153.861785 C61.8839352,153.475405 61.5341978,153.081042 61.2175149,152.662729 C60.783542,152.089013 60.4034159,151.473786 59.961446,150.905924 C59.6852814,150.551476 59.460831,150.176805 59.276899,149.772329 C58.0330922,147.049574 56.7828878,144.330011 55.5492106,141.602466 C55.3450194,141.151157 55.1781478,140.674834 55.057659,140.194254 C54.8556004,139.390094 54.7143193,138.5705 54.529321,137.76155 C54.2334304,136.466165 53.8543706,135.188344 53.758406,133.853044 C53.7429451,133.633776 53.6779025,133.418233 53.6405829,133.199497 C53.4721119,132.190438 53.1879503,131.195217 53.1820858,130.16487 C53.1746219,128.941333 53.0978503,127.730037 52.7854324,126.541093 C52.7577094,126.435185 52.7582425,126.321825 52.744381,126.211659 C52.4570205,123.959372 52.1669944,121.707616 51.8838991,119.454797 C51.7212926,118.164202 51.5746801,116.871479 51.4115404,115.580884 C51.366757,115.224307 51.3528954,114.841121 51.2068161,114.524991 C50.8560125,113.767133 50.8357533,112.97202 50.803232,112.168924 C50.7589817,111.066198 50.7675119,109.959213 50.5494591,108.86926 C50.5281337,108.761222 50.5260012,108.648927 50.5084077,108.539825 C50.4151088,107.967174 50.3170118,107.395587 50.2253123,106.823468 C50.1245496,106.197063 49.8782406,105.587158 49.9576779,104.941062 C50.126149,103.574362 49.895301,102.234273 49.7332276,100.887264 C49.6548566,100.229992 49.5690216,99.5663339 49.5727536,98.906401 C49.5818169,97.3811043 49.5199731,95.866984 49.296589,94.353928 C49.1675701,93.4811135 49.0860002,92.5811566 49.151576,91.7062132 C49.2208837,90.7807105 49.1553079,89.8802213 49.0273552,88.9765389 C48.7805132,87.2447471 48.6605575,85.5044401 48.6904132,83.7577466 C48.7106723,82.6172335 48.5965812,81.4905576 48.5032823,80.3580275 C48.3971882,79.0684973 48.1428823,77.7773704 48.4334415,76.4782604 C48.4568995,76.372884 48.4403723,76.2568636 48.4302427,76.1466973 C48.3875918,75.6783578 48.3545373,75.2078895 48.290561,74.742211 C48.1924639,74.0263967 48.1220899,73.3137755 48.2265846,72.5905103 C48.2655036,72.3190863 48.251642,72.0370181 48.2340486,71.7618687 C48.177003,70.849671 48.0847704,69.9396022 48.1961959,69.0236792 C48.2228527,68.8054755 48.2057923,68.5803532 48.1940633,68.3594886 C48.1268882,67.087521 48.0506497,65.8166179 47.9882728,64.5446504 C47.9733449,64.2412941 47.9984023,63.9363412 48.0074657,63.6319205 C48.0309237,62.8293569 48.0570473,62.0267933 48.0778396,61.2247619 C48.0933006,60.6425307 48.0474509,60.0539131 48.1258219,59.4812616 C48.2351148,58.6797624 48.239913,57.8809242 48.2345817,57.0778284 C48.2281841,56.1352951 48.1807349,55.1901008 48.2484432,54.2528896 C48.3556036,52.7600574 48.4371735,51.2757405 48.3683989,49.7733286 C48.2964255,48.1996014 48.3897243,46.6178912 48.415848,45.0399064 C48.4190468,44.8185095 48.4568995,44.598177 48.4670291,44.3767802 C48.5278066,43.1330195 48.5923161,41.8892587 48.6397652,40.6449658 C48.6648226,39.9818396 48.6552262,39.3165847 48.6658889,38.6529263 C48.6765516,38.0722917 48.7202688,37.4905928 48.7005427,36.9110226 C48.678151,36.244171 48.7032084,35.5853025 48.7959741,34.9237729 C48.8455558,34.5725183 48.8226309,34.2084908 48.8061037,33.8519141 C48.7831789,33.3553678 48.7271996,32.8604181 48.7000096,32.3638717 C48.6573587,31.5900471 48.6205723,30.8156903 48.5939155,30.0413335 C48.5768551,29.5719296 48.5491321,29.0982681 48.5896504,28.6325896 C48.6173735,28.3090095 48.725067,27.9838329 48.8471552,27.67888 C49.0038973,27.2877101 49.2203506,27.196171 49.6479258,27.3164491 C49.9128945,27.3909577 50.1687999,27.5043171 50.419907,27.6192732 C51.6024032,28.1621212 52.7086608,28.8651627 53.9599315,29.2621869 C54.0894836,29.3031666 54.2035748,29.3915124 54.3261961,29.4564413 C54.815082,29.7145603 55.3018354,29.977469 55.7955195,30.2270727 C56.1415249,30.4021678 56.4992593,30.553846 56.8495298,30.7214902 C58.1242585,31.3324604 59.3765955,31.996651 60.6806467,32.5363058 C61.4504954,32.8545638 62.1878228,33.2340253 62.9507407,33.5597341 C64.1231073,34.0600058 65.3050703,34.5347318 66.4934309,34.9950883 C67.734572,35.4756685 68.9661167,35.9786012 70.200327,36.4751476 C71.7544191,37.0994228 73.1325762,38.0467459 74.6568127,38.7125331 C75.6729703,39.4517645 76.8618641,39.8711412 77.9515945,40.4773216 C79.0866415,41.1090477 80.3075235,41.576855 81.5252066,42.0393403 C82.1772322,42.2873473 82.8068661,42.2218862 83.3805206,41.9339639 C84.1301101,41.5576957 84.6051345,40.9121322 84.2266078,39.8562395 C84.106119,39.520951 83.867274,39.3075372 83.5783142,39.12712 C82.7732785,38.6241873 81.8930706,38.2904954 81.0085976,37.9578679 C80.0233619,37.5874539 79.0477226,37.1898975 78.0688845,36.799792 C77.9665223,36.7593445 77.8646933,36.7034631 77.7836566,36.6305511 C77.3422198,36.2340591 76.7952221,36.0227742 76.2754142,35.761462 C75.7566727,35.4996176 75.252859,35.2074376 74.7373162,34.9386746 C74.4185008,34.7720948 74.1044836,34.5757115 73.7638095,34.475125 C72.219847,34.0190261 70.8091686,33.2095439 69.252944,32.7885705 C69.0679457,32.7385433 68.8946764,32.6379568 68.7230066,32.5485465 C66.7765262,31.5362945 64.7666027,30.666141 62.7230916,29.8699638 C61.9996257,29.5878957 61.2990847,29.2398343 60.5601579,29.00939 C59.6021121,28.7102913 58.6771208,28.3526503 57.8070425,27.8529107 C57.3261536,27.5761646 56.8335358,27.3196423 56.3574451,27.0354454 C56.2524173,26.9731775 56.1324616,26.8390621 56.1249977,26.7310247 C56.1111362,26.5298516 56.3110623,26.4739702 56.47047,26.4431023 C56.7151795,26.3957362 56.9646873,26.3616751 57.2131287,26.3510311 C58.5774243,26.293553 59.9273252,26.3893497 61.2606989,26.7060111 C61.6344274,26.7948892 62.0278819,26.8268214 62.4128063,26.8358689 C63.3260686,26.8571571 65.3173324,26.9258114 65.3999685,26.9337944 C65.9240414,26.9854182 66.4475812,27.0327844 66.9705878,27.0854726 C67.2462192,27.1131472 67.5218507,27.1360319 67.7937501,27.1807371 C69.0796747,27.3909577 71.5443634,27.7922395 71.9180919,27.6671715 C72.2918204,27.5421036 73.0771301,27.6687681 73.656116,27.7177309 C74.3193375,27.7736123 74.9846915,27.8007547 75.6489792,27.84067 C75.981123,27.8608938 76.3132669,27.8821819 76.6454108,27.9013413 C77.3096985,27.9385956 77.9745194,27.9694634 78.6388071,28.0115075 C79.1356901,28.0429075 79.6331061,28.072711 80.1278566,28.130189 C80.6508632,28.1913925 81.1680053,28.3350875 81.6904788,28.3537147 C82.2763955,28.3744706 82.8511164,28.4330131 83.4226384,28.55542 C84.1839569,28.7188066 84.9511399,28.8060881 85.734317,28.7933152 C86.0877863,28.7874609 86.4444545,28.8853865 86.7968575,28.9513797 C87.2596198,29.038129 87.7159844,29.1647935 88.1808791,29.2291902 C89.3329865,29.3888514 90.4888258,29.5203058 91.6425326,29.6703873 C91.9490859,29.7097704 92.266302,29.7619264 92.5398009,29.6075873 C93.0750696,29.306892 93.5644887,28.9481865 93.855581,28.3765994 C94.046977,27.999799 94.0480432,27.6410935 93.859313,27.2642931" id="Fill-1"></path>
        </g>
    </g>
</svg>