<?xml version="1.0" encoding="UTF-8"?>
<svg width="9px" height="10px" viewBox="0 0 9 10" version="1.1" xmlns="http://www.w3.org/2000/svg" xmlns:xlink="http://www.w3.org/1999/xlink">
    <!-- Generator: Sketch 63.1 (92452) - https://sketch.com -->
    <title>Star</title>
    <desc>Created with Sketch.</desc>
    <defs>
        <polygon id="path-1" points="0 0 9 0 9 10 0 10"></polygon>
    </defs>
    <g id="Design-Final-—-Desktop" stroke="none" stroke-width="1" fill="none" fill-rule="evenodd">
        <g id="Product-Detail-Page-—-Aplós" transform="translate(-814.000000, -329.000000)" fill="#FFFFFF">
            <g id="Group-18" transform="translate(814.000000, 307.000000)">
                <g id="Group-31">
                    <g id="Star" transform="translate(0.000000, 22.000000)">
                        <g id="Group-3" fill="none">
                            <mask id="mask-2" fill="white">
                                <use xlink:href="#path-1"></use>
                            </mask>
                            <g id="Clip-2"></g>
                            <path d="M8.88052925,4.40262768 L8.5854666,4.33764566 C8.45539817,4.30961421 8.33014708,4.28158275 8.20369166,4.25864792 C8.10614034,4.24080972 8.00256733,4.24845466 7.90983335,4.27776028 C7.63042709,4.36822544 7.36185986,4.32235578 6.99814999,4.09682996 C6.92950276,4.05350862 6.85965119,4.01018728 6.78377794,3.98088167 C6.57422324,3.89806145 6.40561602,3.72222777 6.22737409,3.53492667 L6.16595289,3.47121881 C6.15150084,3.45592892 6.12380108,3.40623679 6.10573602,3.32596489 C6.05515385,3.10426155 5.97325891,2.8978481 5.85402951,2.6927088 C5.5794406,2.2199965 5.42408108,1.70396285 5.39156398,1.15989775 C5.38433795,1.03757867 5.37349892,0.916533741 5.35663819,0.796762969 C5.34098181,0.682088827 5.31930374,0.566140527 5.28558229,0.456563013 C5.18441795,0.12783047 4.88935531,-0.0569223153 4.57141025,0.0157046417 C4.50035435,0.0309945274 4.42929844,0.0577518274 4.30645603,0.104895642 C4.05354519,0.196634956 3.90661604,0.409419198 3.88975531,0.701201184 C3.88734664,0.764909041 3.8765076,0.827342741 3.86687291,0.891050598 C3.85723821,0.963677555 3.84639917,1.03503035 3.84037748,1.10893147 C3.82351676,1.32936065 3.76209556,1.54978984 3.695857,1.78168644 C3.64286616,1.9702617 3.59107965,2.15883695 3.55856255,2.35123468 C3.53568014,2.48247287 3.48991532,2.62008184 3.43210713,2.73475598 C3.37429893,2.84943012 3.30565171,2.95900764 3.23700448,3.06731099 C3.17437894,3.16669525 3.11175339,3.26607951 3.05514954,3.36928624 C3.02022376,3.43426825 2.98048062,3.47504128 2.91785508,3.51199184 L2.79862569,3.57569969 C2.65771822,3.64960081 2.49633701,3.73369518 2.36747292,3.87512662 C2.2313828,4.02675132 2.05193654,4.12613558 1.8604469,4.23061646 C1.79661702,4.26756702 1.7315828,4.30196926 1.66895726,4.33891982 C1.4509722,4.46760969 1.20408305,4.51602766 0.869277268,4.49181868 C0.68742233,4.48162542 0.476663296,4.57081642 0.296012695,4.74282764 C0.118975106,4.90846806 0.0117890828,5.11233321 0.00215438413,5.30982756 C-0.000254290552,5.34422981 -0.00266296523,5.39647025 0.00697173348,5.45890395 C0.0804363112,5.87937581 0.399585706,6.16223869 0.803038715,6.16223869 C0.901794376,6.16223869 1.00055004,6.15841622 1.0993057,6.15459375 C1.25948257,6.14822296 1.41965943,6.14185218 1.57863196,6.15459375 C2.03748449,6.18899599 2.4734546,6.3966836 2.90942472,6.79039816 C3.09368833,6.95603859 3.22014375,7.145888 3.29722134,7.37396213 C3.30926472,7.40836437 3.34298616,7.50902279 3.3441905,7.55106997 L3.26109122,7.681034 L3.32612544,7.83775533 C3.35141652,7.90018903 3.37791195,7.95625195 3.40199869,8.00976655 C3.43933315,8.09258676 3.47546327,8.16648787 3.49473267,8.24548562 C3.54892785,8.46464064 3.595897,8.68761814 3.64286616,8.91059564 L3.71873941,9.26608549 C3.73680447,9.35272817 3.76089122,9.44446749 3.80424736,9.53365849 C3.94515483,9.83563373 4.19324832,10 4.495537,10 C4.54250615,10 4.59067965,9.99490337 4.64005748,9.98725843 C5.16755723,9.90061574 5.2891953,9.51199781 5.31569072,9.286472 C5.34339048,9.04183383 5.35182084,8.7959215 5.34218615,8.55892827 C5.33496012,8.39073953 5.35663819,8.22382495 5.40962904,8.0467171 C5.59630132,7.41983179 5.84921217,6.98024758 6.20328734,6.66553076 C6.37069023,6.51772853 6.53929746,6.3699263 6.71753939,6.23741396 C6.78016493,6.19027015 6.85965119,6.15459375 6.93672878,6.13548139 C7.41244203,6.02335556 7.88935962,5.91632636 8.36868588,5.82458705 C8.79140828,5.74431515 8.92147672,5.45125901 8.95519816,5.22063656 L8.96844587,5.14163882 C8.99614563,4.98746581 9.03348009,4.77722988 8.94195045,4.55170406 L8.88052925,4.40262768 Z" id="Fill-1" fill="#020303" mask="url(#mask-2)"></path>
                        </g>
                    </g>
                </g>
            </g>
        </g>
    </g>
</svg>